ply
format ascii 1.0
comment VCGLIB generated
element vertex 12
property float x
property float y
property float z
element face 20
property list uchar int vertex_indices
end_header
1 0.1 5.551115e-17 
-1 0.1 -5.551115e-17 
-1 0.05 0.08660254 
1 0.05 0.08660254 
-1 -0.05 0.08660254 
1 -0.05 0.08660254 
-1 -0.1 -4.326468e-17 
1 -0.1 6.775762e-17 
-1 -0.05 -0.08660254 
1 -0.05 -0.08660254 
-1 0.05 -0.08660254 
1 0.05 -0.08660254 
3 0 1 2 
3 3 0 2 
3 3 2 4 
3 5 3 4 
3 5 4 6 
3 7 5 6 
3 7 6 8 
3 9 7 8 
3 9 8 10 
3 11 9 10 
3 11 10 1 
3 0 11 1 
3 2 1 10 
3 4 8 6 
3 4 10 8 
3 4 2 10 
3 11 0 3 
3 7 9 5 
3 9 11 5 
3 11 3 5 
