ply
format ascii 1.0
comment VCGLIB generated
element vertex 24
property float x
property float y
property float z
property uchar red
property uchar green
property uchar blue
property uchar alpha
element face 44
property list uchar int vertex_indices
end_header
-1 0 -0.1 191 191 191 255 
1 0 -0.1 191 191 191 255 
-1 0.05 -0.086603 191 191 191 255 
1 0.05 -0.086603 191 191 191 255 
-1 0.086603 -0.05 191 191 191 255 
1 0.086603 -0.05 191 191 191 255 
-1 0.1 0 191 191 191 255 
1 0.1 -0 191 191 191 255 
-1 0.086603 0.05 191 191 191 255 
1 0.086603 0.05 191 191 191 255 
-1 0.05 0.086603 191 191 191 255 
1 0.05 0.086603 191 191 191 255 
-1 0 0.1 191 191 191 255 
1 0 0.1 191 191 191 255 
-1 -0.05 0.086603 191 191 191 255 
1 -0.05 0.086603 191 191 191 255 
-1 -0.086603 0.05 191 191 191 255 
1 -0.086603 0.05 191 191 191 255 
-1 -0.1 0 191 191 191 255 
1 -0.1 -0 191 191 191 255 
-1 -0.086603 -0.05 191 191 191 255 
1 -0.086603 -0.05 191 191 191 255 
-1 -0.05 -0.086603 191 191 191 255 
1 -0.05 -0.086603 191 191 191 255 
3 3 1 0 
3 3 0 2 
3 5 3 2 
3 5 2 4 
3 7 5 4 
3 7 4 6 
3 9 7 6 
3 9 6 8 
3 11 9 8 
3 11 8 10 
3 13 11 10 
3 13 10 12 
3 15 13 12 
3 15 12 14 
3 17 15 14 
3 17 14 16 
3 19 17 16 
3 19 16 18 
3 21 19 18 
3 21 18 20 
3 23 21 20 
3 23 20 22 
3 1 23 22 
3 1 22 0 
3 0 22 20 
3 0 20 18 
3 0 18 16 
3 0 16 14 
3 0 14 12 
3 0 12 10 
3 0 10 8 
3 0 8 6 
3 0 6 4 
3 0 4 2 
3 1 23 21 
3 1 21 19 
3 1 19 17 
3 1 17 15 
3 1 15 13 
3 1 13 11 
3 1 11 9 
3 1 9 7 
3 1 7 5 
3 1 5 3 
