ply
format ascii 1.0
comment VCGLIB generated
element vertex 16
property float x
property float y
property float z
element face 32
property list uchar int vertex_indices
end_header
-110 -110 15 
-110 -110 -15 
-110 110 -15 
-110 110 15 
110 110 -15 
110 110 15 
110 -110 -15 
110 -110 15 
-135 -135 15 
135 -135 15 
135 135 15 
-135 135 15 
-135 -135 -15 
-135 135 -15 
135 135 -15 
135 -135 -15 
3 0 1 2 
3 2 3 0 
3 3 2 4 
3 4 5 3 
3 5 4 6 
3 6 7 5 
3 7 6 1 
3 1 0 7 
3 8 0 3 
3 9 7 0 
3 0 8 9 
3 10 5 7 
3 11 3 5 
3 7 9 10 
3 3 11 8 
3 5 10 11 
3 12 13 2 
3 13 14 4 
3 4 2 13 
3 14 15 6 
3 6 4 14 
3 15 12 1 
3 1 6 15 
3 2 1 12 
3 11 13 12 
3 12 8 11 
3 8 12 15 
3 15 9 8 
3 9 15 14 
3 14 10 9 
3 10 14 13 
3 13 11 10 
