ply
format ascii 1.0
comment VCGLIB generated
element vertex 24
property float x
property float y
property float z
element face 52
property list uchar int vertex_indices
end_header
-112.5 112.5 -15 
-112.5 112.5 15 
-112.5 79.38566 15 
-112.5 79.38566 -15 
112.5 112.5 -15 
112.5 112.5 15 
112.5 -50.51815 -15 
112.5 -50.51815 15 
-137.5 137.5 15 
-112.5 50.51815 15 
-137.5 -137.5 15 
-112.5 -112.5 15 
137.5 -137.5 15 
112.5 -112.5 15 
137.5 137.5 15 
112.5 -79.38566 15 
112.5 -79.38566 -15 
-112.5 50.51815 -15 
137.5 -137.5 -15 
112.5 -112.5 -15 
-137.5 137.5 -15 
137.5 137.5 -15 
-137.5 -137.5 -15 
-112.5 -112.5 -15 
3 0 1 2 
3 2 3 0 
3 1 0 4 
3 4 5 1 
3 5 4 6 
3 6 7 5 
3 6 3 2 
3 2 7 6 
3 8 9 2 
3 10 11 9 
3 12 13 11 
3 8 1 5 
3 9 7 2 
3 11 10 12 
3 12 14 15 
3 2 1 8 
3 15 13 12 
3 14 5 7 
3 9 8 10 
3 7 15 14 
3 7 9 15 
3 5 14 8 
3 6 16 17 
3 18 19 16 
3 20 0 3 
3 20 21 4 
3 16 6 18 
3 18 22 23 
3 4 0 20 
3 21 18 6 
3 22 3 17 
3 23 19 18 
3 6 4 21 
3 17 3 6 
3 17 23 22 
3 3 22 20 
3 19 13 15 
3 15 16 19 
3 11 23 17 
3 17 9 11 
3 8 20 22 
3 22 10 8 
3 10 22 18 
3 18 12 10 
3 12 18 21 
3 21 14 12 
3 14 21 20 
3 20 8 14 
3 13 19 23 
3 23 11 13 
3 17 16 15 
3 15 9 17 
