ply
format ascii 1.0
comment VCGLIB generated
element vertex 686
property float x
property float y
property float z
element face 1376
property list uchar int vertex_indices
end_header
1.231344 49.68023 10 
1.231344 49.68023 -10 
5 50 -10 
-2.493491 48.72465 10 
-2.493491 48.72465 -10 
-6.131193 47.14436 10 
-6.131193 47.14436 -10 
-9.639462 44.95774 10 
-9.639462 44.95774 -10 
-12.9775 42.19022 10 
-12.9775 42.19022 -10 
-16.10651 38.87398 10 
-16.10651 38.87398 -10 
-18.99008 35.04757 10 
-18.99008 35.04757 -10 
-21.59471 30.75549 10 
-21.59471 30.75549 -10 
-23.89009 26.04766 10 
-23.89009 26.04766 -10 
-25.84954 20.9788 10 
-25.84954 20.9788 -10 
-27.45028 15.60786 10 
-27.45028 15.60786 -10 
-28.67369 9.997301 10 
-28.67369 9.997301 -10 
-29.50554 4.212353 10 
-29.50554 4.212353 -10 
-29.93616 -1.679716 10 
-29.93616 -1.679716 -10 
-29.96056 -7.610394 10 
-29.96056 -7.610394 -10 
-29.57843 -13.51072 10 
-29.57843 -13.51072 -10 
-28.79423 -19.31208 10 
-28.79423 -19.31208 -10 
-27.61707 -24.94702 10 
-27.61707 -24.94702 -10 
-26.06065 -30.35002 10 
-26.06065 -30.35002 -10 
-24.14305 -35.45826 10 
-24.14305 -35.45826 -10 
-21.88659 -40.21232 10 
-21.88659 -40.21232 -10 
-19.31749 -44.55695 10 
-19.31749 -44.55695 -10 
-16.46562 -48.4416 10 
-16.46562 -48.4416 -10 
-13.36416 -51.82113 10 
-13.36416 -51.82113 -10 
-10.04916 -54.65622 10 
-10.04916 -54.65622 -10 
-6.559171 -56.91391 10 
-6.559171 -56.91391 -10 
-2.934772 -58.56796 10 
-2.934772 -58.56796 -10 
0.7818919 -59.59912 10 
0.7818919 -59.59912 -10 
4.547603 -59.99541 10 
4.547603 -59.99541 -10 
8.318575 -59.75221 10 
8.318575 -59.75221 -10 
12.05096 -58.87237 10 
12.05096 -58.87237 -10 
15.70135 -57.3661 10 
15.70135 -57.3661 -10 
19.22732 -55.25092 10 
19.22732 -55.25092 -10 
22.58784 -52.55143 10 
22.58784 -52.55143 -10 
25.74386 -49.29902 10 
25.74386 -49.29902 -10 
28.65867 -45.5315 10 
28.65867 -45.5315 -10 
31.29838 -41.29269 10 
31.29838 -41.29269 -10 
33.6323 -36.63187 10 
33.6323 -36.63187 -10 
35.63328 -31.60324 10 
35.63328 -31.60324 -10 
37.27806 -26.26526 10 
37.27806 -26.26526 -10 
38.54751 -20.68002 10 
38.54751 -20.68002 -10 
39.42688 -14.91245 10 
39.42688 -14.91245 -10 
39.90594 -9.029618 10 
39.90594 -9.029618 -10 
39.97911 -3.099932 10 
39.97911 -3.099932 -10 
39.64555 2.80766 10 
39.64555 2.80766 -10 
38.90913 8.624466 10 
38.90913 8.624466 -10 
37.77842 14.28285 10 
37.77842 14.28285 -10 
36.26657 19.71701 10 
36.26657 19.71701 -10 
34.39115 24.86377 10 
34.39115 24.86377 -10 
32.17398 29.66327 10 
32.17398 29.66327 -10 
29.64083 34.05971 10 
29.64083 34.05971 -10 
26.82116 38.00197 10 
26.82116 38.00197 -10 
23.74775 41.44421 10 
23.74775 41.44421 -10 
20.45634 44.34639 10 
20.45634 44.34639 -10 
16.98522 46.67479 10 
16.98522 46.67479 -10 
13.37473 48.40231 10 
13.37473 48.40231 -10 
9.666855 49.50888 10 
9.666855 49.50888 -10 
5.904718 49.98162 10 
5.904718 49.98162 -10 
5 50 10 
-59.99169 -1.331405 10 
-59.66264 -8.471567 10 
-58.85653 -15.54399 10 
-63.55894 -57.9533 10 
-64.18279 -80.68506 10 
-62.05696 -83.40367 10 
-59.84105 5.819403 10 
-65.8096 -77.64147 10 
-67.29409 -67.49904 10 
-67.38876 -70.94882 10 
-65.35024 -60.90308 10 
-66.60777 -64.11689 10 
-51.37739 -47.06467 10 
-57.5798 -22.49212 10 
12.94951 117.7995 10 
-4.729979 99.57448 10 
-1.195604 99.97318 10 
-55.58532 -51.51173 10 
-50.01019 -89.60257 10 
-46.56234 -89.75201 10 
-66.88898 -74.36353 10 
-59.49543 -85.71635 10 
-58.6027 -53.18666 10 
56.94146 -39.58871 10 
55.68444 -37.85547 10 
-59.21191 12.92368 10 
2.376954 99.89368 10 
-53.38101 -88.86265 10 
-61.28722 -55.35537 10 
17.5394 -76.50556 10 
-55.84267 -29.26041 10 
-35.72618 66.36977 10 
30.45014 70.60627 10 
2.775718 70.14516 10 
-14.00284 95.71005 10 
10.03769 117.7993 10 
5.240746 119.0002 10 
9.182669 98.32551 10 
14.27919 118.4309 10 
-8.113297 98.71033 10 
-43.14014 -89.30649 10 
-56.57446 -87.55425 10 
-52.3712 -48.90122 10 
-19.41396 -75.69645 10 
-14.26482 -77.70617 10 
-27.09824 -76.27155 10 
-53.80644 -50.41803 10 
-58.10932 19.92462 10 
-53.65901 -35.79473 10 
-51.54599 -40.94465 10 
-0.7939864 70.01183 10 
-4.764925 119.9995 10 
-9.813716 119.782 10 
0.2801093 119.7375 10 
5.873601 99.33855 10 
-39.84547 -88.27929 10 
-31.67136 -82.09411 10 
-29.78732 -79.20267 10 
-36.77644 -86.701 10 
-34.02442 -84.6186 10 
-21.32782 -75.09988 10 
-25.2945 -75.39674 10 
-28.62786 -77.56731 10 
-3.66643 -79.85049 10 
1.698068 -79.96796 10 
-9.001612 -79.09455 10 
-57.98533 22.01589 10 
-51.23253 124.9413 10 
-54.94353 113.6996 10 
-54.37527 110.7161 10 
-54.89915 116.7364 10 
-53.00483 122.4749 10 
6.256778 70.75291 10 
-35.9673 68.88009 10 
-4.338335 70.35715 10 
-11.23751 97.40833 10 
33.53395 129.5778 10 
41.23253 124.9413 10 
38.99974 127.0002 10 
-23.3299 -74.99784 10 
-50.89273 -45.03349 10 
-73.90186 33.8499 10 
-79.73482 42.52589 10 
-78.31313 39.30444 10 
-53.21767 107.9082 10 
-54.24397 119.7021 10 
30.21025 73.10073 10 
17.18663 77.32871 10 
15.09163 75.1569 10 
30.59808 75.57651 10 
18.73276 79.74551 10 
9.538021 71.81564 10 
12.51466 73.29944 10 
-7.744133 71.1701 10 
-14.78556 119.0884 10 
-16.32098 93.66975 10 
43.00483 122.4749 10 
44.89915 116.7364 10 
44.24397 119.7021 10 
44.37527 110.7161 10 
44.94353 113.6996 10 
41.5182 105.3911 10 
43.21767 107.9082 10 
7.048988 -79.44599 10 
-50.95023 -42.94607 10 
-58.40851 24.06764 10 
-59.34985 25.93918 10 
-60.74478 27.50217 10 
-37.73201 62.62796 10 
-39.60728 61.82515 10 
-71.049 31.78588 10 
-67.87839 30.25418 10 
-76.34852 36.38225 10 
-64.48828 29.30227 10 
-80.39336 52.95962 10 
-80.79131 49.46097 10 
-75.69755 62.30016 10 
-77.80639 59.48028 10 
46.92487 -79.24313 10 
74.54186 -55.93917 10 
73.37176 -52.6775 10 
60.48307 -80.32669 10 
63.73347 -79.12565 10 
50.19174 -80.39862 10 
53.60903 -80.97287 10 
-51.5182 105.3911 10 
-46.39799 128.5671 10 
-48.99974 127.0002 10 
-37.49458 129.7893 10 
-40.52503 129.9908 10 
33.33614 81.43748 10 
20 85 10 
19.68064 82.33012 10 
-10.90262 72.42474 10 
11.49362 117.5828 10 
21.86185 127.6004 10 
19.4905 125.7028 10 
27.49458 129.7893 10 
24.56685 128.9814 10 
67.54268 74.14053 10 
57.60072 76.5984 10 
54.17102 76.24439 10 
64.3874 75.53061 10 
61.04025 76.3581 10 
59.9495 3.281407 10 
59.48998 10.40875 10 
12.34354 -78.28877 10 
-43.65287 61.74029 10 
-45.56015 62.46375 10 
-62.49766 28.64943 10 
-41.62462 61.52271 10 
-80.5695 45.94675 10 
-79.388 56.33426 10 
-66.93047 67.99529 10 
-70.17398 66.62469 10 
-59.97956 68.94206 10 
-63.49685 68.77582 10 
71.65621 -49.66676 10 
75.12273 -62.81904 10 
75.13142 -59.35385 10 
73.32957 -69.48647 10 
74.51604 -66.23071 10 
69.3761 -75.14687 10 
71.59894 -72.48856 10 
66.72778 -77.38159 10 
-43.53395 129.5778 10 
-22.94951 117.7995 10 
-24.27919 118.4309 10 
-44.93786 88.32841 10 
31.30267 68.24978 10 
-36.12074 63.87894 10 
31.58925 77.87812 10 
-13.71291 74.08097 10 
-18.11789 91.35256 10 
-21.49362 117.5828 10 
-19.90103 83.50958 10 
-19.93696 86.19004 10 
14.82472 95.06867 10 
16.97752 92.92889 10 
12.19848 96.8869 10 
34.80966 99.80807 10 
35.67617 100.8526 10 
15.36742 119.422 10 
34.97348 88.90772 10 
34.83777 92.6992 10 
30.52503 129.9908 10 
50.85309 75.30657 10 
72.91104 69.85333 10 
70.41232 72.22916 10 
77.50696 60.70121 10 
76.51186 64.00241 10 
58.55477 17.45286 10 
57.15136 24.35742 10 
-73.12685 64.7065 10 
-53.1293 67.43031 10 
-56.48763 68.48888 10 
35.79293 -70.10992 10 
37.55031 -71.20606 10 
58.61317 -40.92647 10 
69.44675 -46.99733 10 
66.80967 -44.74934 10 
57.07414 -80.94865 10 
-31.86185 127.6004 10 
-34.56685 128.9814 10 
-27.54999 123.3664 10 
-29.4905 125.7028 10 
-44.22417 95.87996 10 
-44.89989 92.12114 10 
-44.80966 99.80807 10 
-25.36742 119.422 10 
-44.33746 84.5624 10 
34.47025 85.13371 10 
-36.82877 71.25027 10 
-17.94394 78.37553 10 
-19.22954 80.87672 10 
-16.08527 76.08591 10 
-19.33618 88.8325 10 
-19.601 117.9299 10 
-20.03769 117.7993 10 
34.22417 95.87996 10 
16.1199 120.6871 10 
36.79166 101.6256 10 
17.54999 123.3664 10 
36.39799 128.5671 10 
74.96456 67.08364 10 
76.97007 50.47401 10 
77.73952 53.83497 10 
73.77338 44.39286 10 
75.6348 47.29514 10 
65.6534 38.15187 10 
68.7074 39.75226 10 
59.43065 -10.99479 10 
59.92968 -3.872172 10 
54.93213 -35.85092 10 
-47.22247 63.64605 10 
-50.00867 65.79919 10 
31.74336 -69.42209 10 
33.81305 -69.50167 10 
22.59501 -74.11061 10 
60.57982 -41.77294 10 
38.96739 -72.71663 10 
-26.1199 120.6871 10 
-49.34651 103.2679 10 
-46.79166 101.6256 10 
-44.05589 97.22665 10 
-45.67617 100.8526 10 
-43.10829 80.8833 10 
19.60509 87.96609 10 
19.99596 85.30157 10 
34.25597 98.56898 10 
34.05589 97.22665 10 
39.34651 103.2679 10 
77.92027 57.27815 10 
71.44114 41.8534 10 
62.36992 37.0998 10 
44.94073 71.80753 10 
42.52202 69.3503 10 
58.62767 35.0921 10 
39.16425 66.95824 10 
37.13912 66.48817 10 
57.28801 33.41983 10 
56.44026 31.45197 10 
56.42411 27.20521 10 
58.45641 -18.02949 10 
27.46996 -71.12307 10 
41.22717 -75.34361 10 
-44.25597 98.56898 10 
-41.26999 77.34993 10 
18.58812 90.53589 10 
47.74554 73.81281 10 
35.06125 66.55578 10 
60.36313 36.3488 10 
56.14524 29.32968 10 
57.01476 -24.92003 10 
29.72261 -69.87651 10 
27.88625 -70.83448 10 
43.90647 -77.5411 10 
63.82416 -42.99028 10 
-38.85196 74.01875 10 
33.07096 67.1565 10 
40.99987 67.93426 10 
54.73843 -33.71862 10 
55.11722 -31.61131 10 
-38.25581 73.32956 10 
31.30267 68.24978 -10 
-35.72618 66.36977 -10 
-0.7939864 70.01183 -10 
-4.338335 70.35715 -10 
2.775718 70.14516 -10 
55.68444 -37.85547 -10 
-63.55894 -57.9533 -10 
-64.18279 -80.68506 -10 
-65.8096 -77.64147 -10 
-7.744133 71.1701 -10 
-67.29409 -67.49904 -10 
-66.60777 -64.11689 -10 
-66.88898 -74.36353 -10 
-67.38876 -70.94882 -10 
-62.05696 -83.40367 -10 
6.256778 70.75291 -10 
-59.49543 -85.71635 -10 
-61.28722 -55.35537 -10 
-55.58532 -51.51173 -10 
-46.56234 -89.75201 -10 
-50.01019 -89.60257 -10 
-10.90262 72.42474 -10 
-51.37739 -47.06467 -10 
-50.89273 -45.03349 -10 
-19.41396 -75.69645 -10 
-58.6027 -53.18666 -10 
-43.14014 -89.30649 -10 
9.538021 71.81564 -10 
-35.9673 68.88009 -10 
-13.71291 74.08097 -10 
50.19174 -80.39862 -10 
60.48307 -80.32669 -10 
57.07414 -80.94865 -10 
46.92487 -79.24313 -10 
66.72778 -77.38159 -10 
63.73347 -79.12565 -10 
71.65621 -49.66676 -10 
73.37176 -52.6775 -10 
-57.5798 -22.49212 -10 
-58.85653 -15.54399 -10 
-27.09824 -76.27155 -10 
-28.62786 -77.56731 -10 
-53.80644 -50.41803 -10 
-29.78732 -79.20267 -10 
-65.35024 -60.90308 -10 
-53.38101 -88.86265 -10 
-56.57446 -87.55425 -10 
-39.84547 -88.27929 -10 
58.45641 -18.02949 -10 
57.01476 -24.92003 -10 
12.19848 96.8869 -10 
0.2801093 119.7375 -10 
5.240746 119.0002 -10 
-19.601 117.9299 -10 
-14.78556 119.0884 -10 
-22.94951 117.7995 -10 
2.376954 99.89368 -10 
-1.195604 99.97318 -10 
53.60903 -80.97287 -10 
69.3761 -75.14687 -10 
73.32957 -69.48647 -10 
71.59894 -72.48856 -10 
75.12273 -62.81904 -10 
74.51604 -66.23071 -10 
74.54186 -55.93917 -10 
75.13142 -59.35385 -10 
69.44675 -46.99733 -10 
56.94146 -39.58871 -10 
27.46996 -71.12307 -10 
22.59501 -74.11061 -10 
7.048988 -79.44599 -10 
1.698068 -79.96796 -10 
-53.65901 -35.79473 -10 
-55.84267 -29.26041 -10 
-59.66264 -8.471567 -10 
-52.3712 -48.90122 -10 
-23.3299 -74.99784 -10 
-25.2945 -75.39674 -10 
-31.67136 -82.09411 -10 
-36.77644 -86.701 -10 
59.43065 -10.99479 -10 
12.94951 117.7995 -10 
19.60509 87.96609 -10 
12.51466 73.29944 -10 
-4.764925 119.9995 -10 
-9.813716 119.782 -10 
5.873601 99.33855 -10 
63.82416 -42.99028 -10 
66.80967 -44.74934 -10 
27.88625 -70.83448 -10 
-3.66643 -79.85049 -10 
-51.54599 -40.94465 -10 
-50.95023 -42.94607 -10 
-21.32782 -75.09988 -10 
-34.02442 -84.6186 -10 
59.92968 -3.872172 -10 
57.15136 24.35742 -10 
58.55477 17.45286 -10 
33.53395 129.5778 -10 
43.00483 122.4749 -10 
44.24397 119.7021 -10 
19.99596 85.30157 -10 
15.09163 75.1569 -10 
-4.729979 99.57448 -10 
-54.89915 116.7364 -10 
-54.24397 119.7021 -10 
-53.00483 122.4749 -10 
-51.23253 124.9413 -10 
-53.21767 107.9082 -10 
-54.37527 110.7161 -10 
29.72261 -69.87651 -10 
35.79293 -70.10992 -10 
33.81305 -69.50167 -10 
58.61317 -40.92647 -10 
12.34354 -78.28877 -10 
59.9495 3.281407 -10 
59.48998 10.40875 -10 
44.37527 110.7161 -10 
43.21767 107.9082 -10 
44.89915 116.7364 -10 
44.94353 113.6996 -10 
41.23253 124.9413 -10 
36.39799 128.5671 -10 
38.99974 127.0002 -10 
41.5182 105.3911 -10 
21.86185 127.6004 -10 
24.56685 128.9814 -10 
-19.90103 83.50958 -10 
-38.85196 74.01875 -10 
-41.26999 77.34993 -10 
20 85 -10 
17.18663 77.32871 -10 
11.49362 117.5828 -10 
14.82472 95.06867 -10 
-20.03769 117.7993 -10 
9.182669 98.32551 -10 
-54.94353 113.6996 -10 
-51.5182 105.3911 -10 
60.57982 -41.77294 -10 
41.22717 -75.34361 -10 
38.96739 -72.71663 -10 
43.90647 -77.5411 -10 
31.74336 -69.42209 -10 
37.55031 -71.20606 -10 
-9.001612 -79.09455 -10 
17.5394 -76.50556 -10 
56.44026 31.45197 -10 
19.4905 125.7028 -10 
-38.25581 73.32956 -10 
-19.22954 80.87672 -10 
-19.93696 86.19004 -10 
-43.10829 80.8833 -10 
-17.94394 78.37553 -10 
-16.08527 76.08591 -10 
-36.82877 71.25027 -10 
19.68064 82.33012 -10 
18.73276 79.74551 -10 
10.03769 117.7993 -10 
-8.113297 98.71033 -10 
-43.53395 129.5778 -10 
-40.52503 129.9908 -10 
-48.99974 127.0002 -10 
56.42411 27.20521 -10 
50.85309 75.30657 -10 
77.92027 57.27815 -10 
77.73952 53.83497 -10 
74.96456 67.08364 -10 
76.51186 64.00241 -10 
67.54268 74.14053 -10 
57.60072 76.5984 -10 
61.04025 76.3581 -10 
54.17102 76.24439 -10 
27.49458 129.7893 -10 
30.52503 129.9908 -10 
17.54999 123.3664 -10 
14.27919 118.4309 -10 
34.22417 95.87996 -10 
34.83777 92.6992 -10 
34.80966 99.80807 -10 
15.36742 119.422 -10 
34.97348 88.90772 -10 
-44.33746 84.5624 -10 
-21.49362 117.5828 -10 
-14.00284 95.71005 -10 
-24.27919 118.4309 -10 
-46.39799 128.5671 -10 
-59.99169 -1.331405 -10 
-59.84105 5.819403 -10 
-14.26482 -77.70617 -10 
54.93213 -35.85092 -10 
55.11722 -31.61131 -10 
71.44114 41.8534 -10 
68.7074 39.75226 -10 
76.97007 50.47401 -10 
75.6348 47.29514 -10 
77.50696 60.70121 -10 
72.91104 69.85333 -10 
70.41232 72.22916 -10 
16.1199 120.6871 -10 
39.34651 103.2679 -10 
36.79166 101.6256 -10 
34.05589 97.22665 -10 
35.67617 100.8526 -10 
34.47025 85.13371 -10 
-44.93786 88.32841 -10 
16.97752 92.92889 -10 
-11.23751 97.40833 -10 
-44.80966 99.80807 -10 
-45.67617 100.8526 -10 
-25.36742 119.422 -10 
-44.89989 92.12114 -10 
-31.86185 127.6004 -10 
-29.4905 125.7028 -10 
-37.49458 129.7893 -10 
-34.56685 128.9814 -10 
-79.73482 42.52589 -10 
-73.90186 33.8499 -10 
-76.34852 36.38225 -10 
-59.21191 12.92368 -10 
56.14524 29.32968 -10 
65.6534 38.15187 -10 
73.77338 44.39286 -10 
64.3874 75.53061 -10 
34.25597 98.56898 -10 
30.21025 73.10073 -10 
30.45014 70.60627 -10 
33.33614 81.43748 -10 
18.58812 90.53589 -10 
-16.32098 93.66975 -10 
-18.11789 91.35256 -10 
-44.22417 95.87996 -10 
-26.1199 120.6871 -10 
-46.79166 101.6256 -10 
-27.54999 123.3664 -10 
-64.48828 29.30227 -10 
-79.388 56.33426 -10 
-77.80639 59.48028 -10 
-80.5695 45.94675 -10 
-80.79131 49.46097 -10 
-71.049 31.78588 -10 
-67.87839 30.25418 -10 
-60.74478 27.50217 -10 
-41.62462 61.52271 -10 
-39.60728 61.82515 -10 
-58.40851 24.06764 -10 
-57.98533 22.01589 -10 
-58.10932 19.92462 -10 
54.73843 -33.71862 -10 
39.16425 66.95824 -10 
40.99987 67.93426 -10 
60.36313 36.3488 -10 
58.62767 35.0921 -10 
35.06125 66.55578 -10 
37.13912 66.48817 -10 
33.07096 67.1565 -10 
62.36992 37.0998 -10 
44.94073 71.80753 -10 
47.74554 73.81281 -10 
42.52202 69.3503 -10 
30.59808 75.57651 -10 
31.58925 77.87812 -10 
-36.12074 63.87894 -10 
-44.25597 98.56898 -10 
-44.05589 97.22665 -10 
-49.34651 103.2679 -10 
-66.93047 67.99529 -10 
-63.49685 68.77582 -10 
-73.12685 64.7065 -10 
-70.17398 66.62469 -10 
-80.39336 52.95962 -10 
-43.65287 61.74029 -10 
-62.49766 28.64943 -10 
-59.34985 25.93918 -10 
57.28801 33.41983 -10 
-59.97956 68.94206 -10 
-56.48763 68.48888 -10 
-75.69755 62.30016 -10 
-78.31313 39.30444 -10 
-45.56015 62.46375 -10 
-19.33618 88.8325 -10 
-47.22247 63.64605 -10 
-53.1293 67.43031 -10 
-50.00867 65.79919 -10 
-37.73201 62.62796 -10 
3 0 1 2 
3 3 4 1 
3 5 6 4 
3 7 8 6 
3 9 10 8 
3 11 12 10 
3 13 14 12 
3 15 16 14 
3 17 18 16 
3 19 20 18 
3 21 22 20 
3 23 24 22 
3 25 26 24 
3 27 28 26 
3 29 30 28 
3 31 32 30 
3 33 34 32 
3 35 36 34 
3 37 38 36 
3 39 40 38 
3 41 42 40 
3 43 44 42 
3 45 46 44 
3 47 48 46 
3 49 50 48 
3 51 52 50 
3 53 54 52 
3 55 56 54 
3 57 58 56 
3 59 60 58 
3 61 62 60 
3 63 64 62 
3 65 66 64 
3 67 68 66 
3 69 70 68 
3 71 72 70 
3 73 74 72 
3 75 76 74 
3 77 78 76 
3 79 80 78 
3 81 82 80 
3 83 84 82 
3 85 86 84 
3 87 88 86 
3 89 90 88 
3 91 92 90 
3 93 94 92 
3 95 96 94 
3 97 98 96 
3 99 100 98 
3 101 102 100 
3 103 104 102 
3 105 106 104 
3 107 108 106 
3 109 110 108 
3 111 112 110 
3 113 114 112 
3 115 116 114 
3 117 2 116 
3 116 115 117 
3 114 113 115 
3 112 111 113 
3 110 109 111 
3 108 107 109 
3 106 105 107 
3 104 103 105 
3 102 101 103 
3 100 99 101 
3 98 97 99 
3 96 95 97 
3 94 93 95 
3 92 91 93 
3 90 89 91 
3 88 87 89 
3 86 85 87 
3 84 83 85 
3 82 81 83 
3 80 79 81 
3 78 77 79 
3 76 75 77 
3 74 73 75 
3 72 71 73 
3 70 69 71 
3 68 67 69 
3 66 65 67 
3 64 63 65 
3 62 61 63 
3 60 59 61 
3 58 57 59 
3 56 55 57 
3 54 53 55 
3 52 51 53 
3 50 49 51 
3 48 47 49 
3 46 45 47 
3 44 43 45 
3 42 41 43 
3 40 39 41 
3 38 37 39 
3 36 35 37 
3 34 33 35 
3 32 31 33 
3 30 29 31 
3 28 27 29 
3 26 25 27 
3 24 23 25 
3 22 21 23 
3 20 19 21 
3 18 17 19 
3 16 15 17 
3 14 13 15 
3 12 11 13 
3 10 9 11 
3 8 7 9 
3 6 5 7 
3 4 3 5 
3 1 0 3 
3 2 117 0 
3 118 119 29 
3 29 119 120 
3 121 122 123 
3 124 118 27 
3 120 31 29 
3 121 125 122 
3 121 126 127 
3 121 128 129 
3 130 47 45 
3 29 27 118 
3 31 120 131 
3 132 133 134 
3 135 136 137 
3 121 138 125 
3 129 126 121 
3 139 135 140 
3 130 49 47 
3 141 142 65 
3 143 124 25 
3 131 33 31 
3 134 144 132 
3 135 145 136 
3 127 138 121 
3 140 146 139 
3 130 51 49 
3 147 53 51 
3 65 147 141 
3 27 25 124 
3 33 131 148 
3 149 150 151 
3 152 153 154 
3 155 156 132 
3 132 157 133 
3 137 158 135 
3 135 139 159 
3 146 121 139 
3 160 161 162 
3 163 160 164 
3 51 130 147 
3 65 63 147 
3 165 143 23 
3 148 35 33 
3 166 167 37 
3 151 168 149 
3 152 169 170 
3 154 171 152 
3 144 172 132 
3 158 173 135 
3 123 139 121 
3 135 174 175 
3 135 176 177 
3 160 178 161 
3 160 163 179 
3 164 175 180 
3 130 181 182 
3 130 160 183 
3 147 55 53 
3 63 61 147 
3 25 23 143 
3 35 148 166 
3 184 165 21 
3 185 186 187 
3 188 185 189 
3 150 190 151 
3 191 168 192 
3 171 169 152 
3 132 193 157 
3 194 195 196 
3 159 145 135 
3 177 174 135 
3 160 197 178 
3 164 180 163 
3 183 181 130 
3 147 57 55 
3 61 59 147 
3 198 43 41 
3 39 37 167 
3 37 35 166 
3 21 19 184 
3 199 200 201 
3 187 202 185 
3 189 203 188 
3 204 205 206 
3 204 207 208 
3 150 209 190 
3 150 204 210 
3 192 211 191 
3 212 213 152 
3 132 172 155 
3 194 214 195 
3 194 215 216 
3 194 217 218 
3 194 219 220 
3 175 164 135 
3 179 197 160 
3 182 221 130 
3 59 57 147 
3 198 45 43 
3 222 41 39 
3 19 17 184 
3 223 184 17 
3 224 223 11 
3 225 226 227 
3 200 228 229 
3 201 230 199 
3 231 232 233 
3 231 234 235 
3 236 237 238 
3 236 239 240 
3 239 241 242 
3 188 186 185 
3 243 244 245 
3 243 246 247 
3 248 249 250 
3 208 205 204 
3 210 209 150 
3 211 251 191 
3 152 252 153 
3 132 152 193 
3 219 253 254 
3 219 255 256 
3 216 214 194 
3 220 217 194 
3 257 258 259 
3 257 260 261 
3 262 89 87 
3 263 91 89 
3 162 183 160 
3 221 264 130 
3 41 222 198 
3 23 21 165 
3 17 15 223 
3 11 9 224 
3 265 266 267 
3 227 268 225 
3 199 228 200 
3 233 269 231 
3 235 270 231 
3 231 271 272 
3 231 273 274 
3 238 275 236 
3 236 276 277 
3 236 278 279 
3 236 280 281 
3 240 282 236 
3 239 236 241 
3 245 185 243 
3 247 283 243 
3 284 285 286 
3 287 117 115 
3 287 149 0 
3 149 288 5 
3 250 208 207 
3 250 289 248 
3 168 191 149 
3 251 290 191 
3 212 291 213 
3 292 293 294 
3 156 295 296 
3 155 297 156 
3 298 299 300 
3 156 301 302 
3 256 253 219 
3 219 194 303 
3 218 215 194 
3 261 258 257 
3 304 305 306 
3 304 307 308 
3 89 262 263 
3 309 93 91 
3 310 95 93 
3 264 147 130 
3 167 222 39 
3 15 13 223 
3 9 7 224 
3 268 265 225 
3 269 200 231 
3 231 311 234 
3 274 271 231 
3 231 312 313 
3 314 315 316 
3 236 317 318 
3 277 237 236 
3 281 278 236 
3 242 319 239 
3 283 244 243 
3 243 320 321 
3 243 322 323 
3 285 324 325 
3 326 285 327 
3 286 328 284 
3 0 117 287 
3 5 3 149 
3 248 329 249 
3 149 287 150 
3 284 330 293 
3 331 332 330 
3 290 333 191 
3 212 334 291 
3 294 335 336 
3 297 295 156 
3 300 156 298 
3 302 337 156 
3 338 300 339 
3 254 340 219 
3 196 341 194 
3 306 257 304 
3 308 342 304 
3 304 343 344 
3 304 345 346 
3 304 347 348 
3 91 263 309 
3 93 309 310 
3 349 85 83 
3 350 87 85 
3 142 351 73 
3 45 198 130 
3 7 5 224 
3 288 225 224 
3 225 288 226 
3 231 352 353 
3 231 267 266 
3 270 232 231 
3 313 273 231 
3 316 141 314 
3 141 354 355 
3 141 147 356 
3 357 316 358 
3 275 317 236 
3 282 280 236 
3 321 246 243 
3 243 359 322 
3 359 360 361 
3 285 362 324 
3 327 361 363 
3 328 364 284 
3 3 0 149 
3 206 210 204 
3 330 332 293 
3 333 331 191 
3 212 294 334 
3 294 336 292 
3 294 212 335 
3 301 365 366 
3 296 301 156 
3 156 367 298 
3 337 368 156 
3 339 369 338 
3 303 255 219 
3 342 305 304 
3 344 370 304 
3 304 371 345 
3 304 372 347 
3 372 373 374 
3 375 376 377 
3 378 107 105 
3 379 101 99 
3 310 380 95 
3 381 83 81 
3 85 349 350 
3 73 71 142 
3 13 11 223 
3 267 225 265 
3 266 352 231 
3 272 311 231 
3 355 314 141 
3 356 382 141 
3 358 383 357 
3 279 276 236 
3 323 320 243 
3 359 243 360 
3 285 384 362 
3 327 363 326 
3 364 385 284 
3 207 289 250 
3 330 191 331 
3 170 212 152 
3 366 329 301 
3 296 386 301 
3 368 367 156 
3 340 338 219 
3 370 307 304 
3 348 371 304 
3 372 387 373 
3 377 388 375 
3 376 375 389 
3 287 111 378 
3 378 109 107 
3 379 103 101 
3 390 99 97 
3 380 97 95 
3 391 81 79 
3 83 381 349 
3 71 69 142 
3 224 5 288 
3 229 231 200 
3 141 392 354 
3 382 393 141 
3 383 394 357 
3 318 395 236 
3 361 327 359 
3 326 384 285 
3 385 396 284 
3 293 292 284 
3 152 132 252 
3 386 365 301 
3 369 219 338 
3 346 343 304 
3 372 304 387 
3 388 397 375 
3 389 374 398 
3 287 113 111 
3 378 111 109 
3 379 105 103 
3 87 350 262 
3 81 391 381 
3 77 399 400 
3 351 399 77 
3 69 67 142 
3 353 312 231 
3 393 392 141 
3 395 357 236 
3 325 286 285 
3 396 401 284 
3 299 339 300 
3 374 389 372 
3 389 398 376 
3 105 379 378 
3 97 380 390 
3 400 79 77 
3 77 75 351 
3 173 176 135 
3 394 236 357 
3 401 330 284 
3 366 249 329 
3 397 287 375 
3 99 390 379 
3 75 73 351 
3 315 358 316 
3 115 113 287 
3 378 375 287 
3 67 65 142 
3 259 304 257 
3 202 243 185 
3 79 400 391 
3 402 403 404 
3 403 405 404 
3 404 406 402 
3 407 72 74 
3 408 409 410 
3 403 411 405 
3 407 70 72 
3 408 412 413 
3 408 414 415 
3 408 416 409 
3 406 417 402 
3 407 68 70 
3 418 408 419 
3 415 412 408 
3 408 418 416 
3 420 421 422 
3 403 423 411 
3 424 425 46 
3 407 66 68 
3 407 426 64 
3 419 427 418 
3 410 414 408 
3 420 428 421 
3 417 429 402 
3 403 430 431 
3 402 92 94 
3 432 433 434 
3 435 436 437 
3 435 438 439 
3 32 34 440 
3 30 32 441 
3 46 48 424 
3 64 66 407 
3 442 443 444 
3 420 444 445 
3 413 446 408 
3 420 447 448 
3 420 449 428 
3 78 450 451 
3 431 423 403 
3 94 96 402 
3 452 453 454 
3 452 455 456 
3 457 458 459 
3 434 460 432 
3 435 461 436 
3 435 462 463 
3 435 464 465 
3 435 466 467 
3 435 468 438 
3 469 470 471 
3 407 472 473 
3 474 36 38 
3 34 36 475 
3 441 476 30 
3 48 50 424 
3 426 62 64 
3 444 477 442 
3 477 478 479 
3 445 480 420 
3 448 418 420 
3 420 481 449 
3 78 482 450 
3 483 402 484 
3 429 485 402 
3 96 98 402 
3 452 486 453 
3 456 487 452 
3 457 488 458 
3 437 433 435 
3 465 462 435 
3 439 466 435 
3 435 489 490 
3 469 491 470 
3 473 492 407 
3 38 493 474 
3 440 441 32 
3 40 494 493 
3 425 494 42 
3 50 52 424 
3 426 60 62 
3 426 477 424 
3 479 442 477 
3 477 426 495 
3 480 496 420 
3 422 447 420 
3 78 497 482 
3 78 498 499 
3 500 501 502 
3 402 503 484 
3 485 504 402 
3 98 100 402 
3 487 486 452 
3 459 505 457 
3 506 507 508 
3 509 510 511 
3 463 461 435 
3 490 468 435 
3 469 512 491 
3 469 513 514 
3 513 469 515 
3 407 516 472 
3 475 440 34 
3 493 38 40 
3 42 44 425 
3 52 54 424 
3 426 58 60 
3 424 56 426 
3 495 478 477 
3 427 420 418 
3 78 517 497 
3 499 518 78 
3 500 519 520 
3 500 521 522 
3 500 523 501 
3 500 524 525 
3 526 527 528 
3 529 530 531 
3 402 532 503 
3 504 533 402 
3 100 102 402 
3 534 535 452 
3 452 536 455 
3 457 537 488 
3 509 538 506 
3 509 539 510 
3 467 464 435 
3 540 541 542 
3 540 435 543 
3 469 544 512 
3 515 545 513 
3 492 546 407 
3 407 469 547 
3 40 42 494 
3 54 56 424 
3 56 58 426 
3 496 481 420 
3 518 517 78 
3 548 86 88 
3 522 519 500 
3 525 523 500 
3 526 549 527 
3 529 550 530 
3 550 529 551 
3 552 529 553 
3 430 554 555 
3 554 430 556 
3 402 557 532 
3 533 558 402 
3 102 104 402 
3 454 559 452 
3 505 560 457 
3 539 561 562 
3 539 509 563 
3 511 538 509 
3 435 540 489 
3 543 541 540 
3 514 544 469 
3 547 516 407 
3 44 46 425 
3 443 445 444 
3 78 564 498 
3 548 90 92 
3 548 84 86 
3 565 566 567 
3 565 568 569 
3 570 571 572 
3 570 565 573 
3 502 521 500 
3 526 574 575 
3 526 576 549 
3 577 578 579 
3 580 577 581 
3 483 577 582 
3 551 556 550 
3 553 583 552 
3 556 551 554 
3 558 557 402 
3 403 402 112 
3 104 106 402 
3 452 584 536 
3 585 586 457 
3 457 452 537 
3 539 587 561 
3 508 509 506 
3 588 28 30 
3 589 26 28 
3 542 515 540 
3 515 542 545 
3 546 590 407 
3 74 591 407 
3 591 76 78 
3 451 592 78 
3 88 90 548 
3 565 593 594 
3 565 595 596 
3 565 597 566 
3 565 598 568 
3 565 570 599 
3 573 571 570 
3 575 500 526 
3 526 600 576 
3 600 601 602 
3 577 603 578 
3 581 604 580 
3 582 605 483 
3 583 606 552 
3 484 534 483 
3 402 110 112 
3 106 108 402 
3 534 607 535 
3 560 608 457 
3 609 610 611 
3 586 606 612 
3 539 613 614 
3 539 615 616 
3 563 587 539 
3 617 618 619 
3 28 588 589 
3 620 24 26 
3 471 547 469 
3 474 475 36 
3 591 74 76 
3 78 621 564 
3 548 82 84 
3 548 78 80 
3 594 622 565 
3 596 623 565 
3 569 597 565 
3 572 624 570 
3 528 574 526 
3 600 526 601 
3 577 625 603 
3 581 602 604 
3 483 626 627 
3 605 628 483 
3 555 431 430 
3 108 110 402 
3 534 629 607 
3 586 630 631 
3 457 608 585 
3 611 586 609 
3 612 632 586 
3 633 611 634 
3 614 635 539 
3 562 615 539 
3 636 637 638 
3 636 639 640 
3 617 641 618 
3 617 636 642 
3 643 644 645 
3 646 16 18 
3 647 20 22 
3 26 589 620 
3 648 22 24 
3 590 426 407 
3 592 649 78 
3 80 82 548 
3 92 402 548 
3 650 651 652 
3 653 654 655 
3 653 402 656 
3 657 658 659 
3 657 652 660 
3 623 593 565 
3 599 598 565 
3 602 581 600 
3 580 625 577 
3 483 661 626 
3 628 662 483 
3 112 663 403 
3 534 484 629 
3 585 630 586 
3 586 664 609 
3 632 665 586 
3 634 666 633 
3 616 613 539 
3 636 667 668 
3 636 669 670 
3 636 671 637 
3 636 617 639 
3 642 641 617 
3 643 672 644 
3 672 643 673 
3 663 4 674 
3 663 116 2 
3 663 112 114 
3 646 8 10 
3 646 14 16 
3 647 18 20 
3 24 620 648 
3 78 649 591 
3 402 675 548 
3 652 653 650 
3 656 654 653 
3 660 658 657 
3 567 595 565 
3 579 582 577 
3 662 661 483 
3 452 559 534 
3 631 606 586 
3 665 664 586 
3 635 633 539 
3 636 676 677 
3 670 667 636 
3 638 678 636 
3 619 679 617 
3 673 680 672 
3 663 1 4 
3 114 116 663 
3 2 1 663 
3 646 6 8 
3 674 4 6 
3 646 12 14 
3 30 476 588 
3 78 548 621 
3 402 653 675 
3 655 650 653 
3 622 657 565 
3 627 402 483 
3 452 457 584 
3 631 681 606 
3 666 539 633 
3 668 676 636 
3 640 671 636 
3 636 682 680 
3 636 683 684 
3 645 685 643 
3 6 646 674 
3 10 12 646 
3 22 648 647 
3 659 565 657 
3 531 553 529 
3 610 634 611 
3 678 669 636 
3 684 682 636 
3 674 643 663 
3 18 647 646 
3 651 660 652 
3 681 552 606 
3 680 673 636 
3 520 526 500 
3 685 663 643 
3 677 683 636 
3 432 435 433 
3 166 474 493 
3 148 475 474 
3 131 440 475 
3 120 441 440 
3 119 476 441 
3 118 588 476 
3 124 589 588 
3 143 620 589 
3 165 648 620 
3 620 143 165 
3 589 124 143 
3 588 118 124 
3 476 119 118 
3 441 120 119 
3 440 131 120 
3 475 148 131 
3 474 166 148 
3 493 167 166 
3 382 470 491 
3 356 471 470 
3 147 547 471 
3 264 516 547 
3 221 472 516 
3 182 473 472 
3 181 492 473 
3 183 546 492 
3 162 590 546 
3 161 426 590 
3 590 162 161 
3 546 183 162 
3 492 181 183 
3 473 182 181 
3 472 221 182 
3 516 264 221 
3 547 147 264 
3 471 356 147 
3 470 382 356 
3 491 393 382 
3 310 498 564 
3 309 499 498 
3 263 518 499 
3 262 517 518 
3 350 497 517 
3 349 482 497 
3 381 450 482 
3 391 451 450 
3 400 592 451 
3 451 391 400 
3 450 381 391 
3 482 349 381 
3 497 350 349 
3 517 262 350 
3 518 263 262 
3 499 309 263 
3 498 310 309 
3 564 380 310 
3 396 530 550 
3 385 531 530 
3 364 553 531 
3 328 583 553 
3 286 606 583 
3 325 612 606 
3 324 632 612 
3 612 325 324 
3 606 286 325 
3 583 328 286 
3 553 364 328 
3 531 385 364 
3 530 396 385 
3 550 401 396 
3 302 579 578 
3 301 582 579 
3 329 605 582 
3 248 628 605 
3 289 662 628 
3 628 248 289 
3 605 329 248 
3 582 301 329 
3 579 302 301 
3 578 337 302 
3 600 338 340 
3 576 340 254 
3 549 254 253 
3 527 253 256 
3 528 256 255 
3 574 255 303 
3 575 303 194 
3 500 194 341 
3 524 341 196 
3 525 196 195 
3 523 195 214 
3 501 214 216 
3 502 216 215 
3 521 215 218 
3 522 218 217 
3 519 217 220 
3 520 220 219 
3 526 219 369 
3 601 369 339 
3 339 602 601 
3 369 601 526 
3 219 526 520 
3 220 520 519 
3 217 519 522 
3 218 522 521 
3 215 521 502 
3 216 502 501 
3 214 501 523 
3 195 523 525 
3 196 525 524 
3 341 524 500 
3 194 500 575 
3 303 575 574 
3 255 574 528 
3 256 528 527 
3 253 527 549 
3 254 549 576 
3 340 576 600 
3 335 455 536 
3 212 456 455 
3 170 487 456 
3 169 486 487 
3 171 453 486 
3 154 454 453 
3 153 559 454 
3 454 154 153 
3 453 171 154 
3 486 169 171 
3 487 170 169 
3 456 212 170 
3 455 335 212 
3 536 336 335 
3 634 361 360 
3 666 360 243 
3 539 243 202 
3 510 202 187 
3 511 187 186 
3 538 186 188 
3 506 188 203 
3 507 203 189 
3 508 189 185 
3 509 185 245 
3 563 245 244 
3 587 244 283 
3 561 283 247 
3 562 247 246 
3 615 246 321 
3 616 321 320 
3 613 320 323 
3 614 323 322 
3 635 322 359 
3 359 633 635 
3 322 635 614 
3 323 614 613 
3 320 613 616 
3 321 616 615 
3 246 615 562 
3 247 562 561 
3 283 561 587 
3 244 587 563 
3 245 563 509 
3 185 509 508 
3 189 508 507 
3 203 507 506 
3 188 506 538 
3 186 538 511 
3 187 511 510 
3 202 510 539 
3 243 539 666 
3 360 666 634 
3 660 374 373 
3 658 373 387 
3 659 387 304 
3 565 304 259 
3 573 259 258 
3 571 258 261 
3 572 261 260 
3 624 260 257 
3 570 257 306 
3 599 306 305 
3 598 305 342 
3 568 342 308 
3 569 308 307 
3 597 307 370 
3 566 370 344 
3 567 344 343 
3 595 343 346 
3 596 346 345 
3 623 345 371 
3 593 371 348 
3 594 348 347 
3 622 347 372 
3 372 657 622 
3 347 622 594 
3 348 594 593 
3 371 593 623 
3 345 623 596 
3 346 596 595 
3 343 595 567 
3 344 567 566 
3 370 566 597 
3 307 597 569 
3 308 569 568 
3 342 568 598 
3 305 598 599 
3 306 599 570 
3 257 570 624 
3 260 624 572 
3 261 572 571 
3 258 571 573 
3 259 573 565 
3 304 565 659 
3 387 659 658 
3 373 658 660 
3 540 357 395 
3 489 395 318 
3 490 318 317 
3 468 317 275 
3 438 275 238 
3 439 238 237 
3 466 237 277 
3 467 277 276 
3 464 276 279 
3 465 279 278 
3 462 278 281 
3 463 281 280 
3 461 280 282 
3 436 282 240 
3 437 240 239 
3 433 239 319 
3 434 319 242 
3 460 242 241 
3 432 241 236 
3 435 236 394 
3 543 394 383 
3 541 383 358 
3 358 542 541 
3 383 541 543 
3 394 543 435 
3 236 435 432 
3 241 432 460 
3 242 460 434 
3 319 434 433 
3 239 433 437 
3 240 437 436 
3 282 436 461 
3 280 461 463 
3 281 463 462 
3 278 462 465 
3 279 465 464 
3 276 464 467 
3 277 467 466 
3 237 466 439 
3 238 439 438 
3 275 438 468 
3 317 468 490 
3 318 490 489 
3 395 489 540 
3 445 175 174 
3 480 174 177 
3 496 177 176 
3 481 176 173 
3 449 173 158 
3 428 158 137 
3 421 137 136 
3 422 136 145 
3 447 145 159 
3 448 159 139 
3 418 139 123 
3 416 123 122 
3 409 122 125 
3 410 125 138 
3 414 138 127 
3 415 127 126 
3 412 126 129 
3 413 129 128 
3 446 128 121 
3 408 121 146 
3 419 146 140 
3 427 140 135 
3 135 420 427 
3 140 427 419 
3 146 419 408 
3 121 408 446 
3 128 446 413 
3 129 413 412 
3 126 412 415 
3 127 415 414 
3 138 414 410 
3 125 410 409 
3 122 409 416 
3 123 416 418 
3 139 418 448 
3 159 448 447 
3 145 447 422 
3 136 422 421 
3 137 421 428 
3 158 428 449 
3 173 449 481 
3 176 481 496 
3 177 496 480 
3 174 480 445 
3 636 231 229 
3 642 229 228 
3 641 228 199 
3 618 199 230 
3 619 230 201 
3 679 201 200 
3 617 200 269 
3 639 269 233 
3 640 233 232 
3 671 232 270 
3 637 270 235 
3 638 235 234 
3 678 234 311 
3 669 311 272 
3 670 272 271 
3 667 271 274 
3 668 274 273 
3 676 273 313 
3 677 313 312 
3 683 312 353 
3 684 353 352 
3 352 682 684 
3 353 684 683 
3 312 683 677 
3 313 677 676 
3 273 676 668 
3 274 668 667 
3 271 667 670 
3 272 670 669 
3 311 669 678 
3 234 678 638 
3 235 638 637 
3 270 637 671 
3 232 671 640 
3 233 640 639 
3 269 639 617 
3 200 617 679 
3 201 679 619 
3 230 619 618 
3 199 618 641 
3 228 641 642 
3 229 642 636 
3 444 420 135 
3 477 444 164 
3 424 477 160 
3 425 424 130 
3 494 425 198 
3 493 494 222 
3 222 167 493 
3 198 222 494 
3 130 198 425 
3 160 130 424 
3 164 160 477 
3 135 164 444 
3 495 426 161 
3 478 495 178 
3 479 478 197 
3 442 479 179 
3 443 442 163 
3 445 443 180 
3 180 175 445 
3 163 180 443 
3 179 163 442 
3 197 179 479 
3 178 197 478 
3 161 178 495 
3 545 542 358 
3 513 545 315 
3 514 513 314 
3 544 514 355 
3 512 544 354 
3 491 512 392 
3 392 393 491 
3 354 392 512 
3 355 354 544 
3 314 355 514 
3 315 314 513 
3 358 315 545 
3 649 592 400 
3 591 649 399 
3 407 591 351 
3 469 407 142 
3 515 469 141 
3 540 515 316 
3 316 357 540 
3 141 316 515 
3 142 141 469 
3 351 142 407 
3 399 351 591 
3 400 399 649 
3 652 657 372 
3 653 652 389 
3 675 653 375 
3 548 675 378 
3 621 548 379 
3 564 621 390 
3 390 380 564 
3 379 390 621 
3 378 379 548 
3 375 378 675 
3 389 375 653 
3 372 389 652 
3 656 402 287 
3 654 656 397 
3 655 654 388 
3 650 655 377 
3 651 650 376 
3 660 651 398 
3 398 374 660 
3 376 398 651 
3 377 376 650 
3 388 377 655 
3 397 388 654 
3 287 397 656 
3 647 648 165 
3 646 647 184 
3 674 646 223 
3 643 674 224 
3 673 643 225 
3 636 673 267 
3 267 231 636 
3 225 267 673 
3 224 225 643 
3 223 224 674 
3 184 223 646 
3 165 184 647 
3 680 682 352 
3 672 680 266 
3 644 672 265 
3 645 644 268 
3 685 645 227 
3 663 685 226 
3 226 288 663 
3 227 226 685 
3 268 227 645 
3 265 268 644 
3 266 265 672 
3 352 266 680 
3 611 633 359 
3 586 611 327 
3 457 586 285 
3 584 457 284 
3 536 584 292 
3 292 336 536 
3 284 292 584 
3 285 284 457 
3 327 285 586 
3 359 327 611 
3 665 632 324 
3 664 665 362 
3 609 664 384 
3 610 609 326 
3 634 610 363 
3 363 361 634 
3 326 363 610 
3 384 326 609 
3 362 384 664 
3 324 362 665 
3 534 559 153 
3 483 534 252 
3 577 483 132 
3 581 577 156 
3 600 581 300 
3 300 338 600 
3 156 300 581 
3 132 156 577 
3 252 132 483 
3 153 252 534 
3 604 602 339 
3 580 604 299 
3 625 580 298 
3 603 625 367 
3 578 603 368 
3 368 337 578 
3 367 368 603 
3 298 367 625 
3 299 298 580 
3 339 299 604 
3 661 662 289 
3 626 661 207 
3 627 626 204 
3 402 627 150 
3 150 287 402 
3 204 150 627 
3 207 204 626 
3 289 207 661 
3 403 663 288 
3 430 403 149 
3 556 430 191 
3 550 556 330 
3 330 401 550 
3 191 330 556 
3 149 191 430 
3 288 149 403 
3 366 503 532 
3 365 484 503 
3 386 629 484 
3 296 607 629 
3 295 535 607 
3 297 452 535 
3 155 537 452 
3 172 488 537 
3 144 458 488 
3 134 459 458 
3 133 505 459 
3 157 560 505 
3 193 608 560 
3 152 585 608 
3 213 630 585 
3 291 631 630 
3 334 681 631 
3 294 552 681 
3 293 529 552 
3 332 551 529 
3 331 554 551 
3 333 555 554 
3 290 431 555 
3 251 423 431 
3 211 411 423 
3 192 405 411 
3 168 404 405 
3 151 406 404 
3 190 417 406 
3 209 429 417 
3 210 485 429 
3 206 504 485 
3 205 533 504 
3 208 558 533 
3 250 557 558 
3 249 532 557 
3 557 250 249 
3 558 208 250 
3 533 205 208 
3 504 206 205 
3 485 210 206 
3 429 209 210 
3 417 190 209 
3 406 151 190 
3 404 168 151 
3 405 192 168 
3 411 211 192 
3 423 251 211 
3 431 290 251 
3 555 333 290 
3 554 331 333 
3 551 332 331 
3 529 293 332 
3 552 294 293 
3 681 334 294 
3 631 291 334 
3 630 213 291 
3 585 152 213 
3 608 193 152 
3 560 157 193 
3 505 133 157 
3 459 134 133 
3 458 144 134 
3 488 172 144 
3 537 155 172 
3 452 297 155 
3 535 295 297 
3 607 296 295 
3 629 386 296 
3 484 365 386 
3 503 366 365 
3 532 249 366 
