ply
format ascii 1.0
comment VCGLIB generated
element vertex 310
property float x
property float y
property float z
element face 620
property list uchar int vertex_indices
end_header
1.218534 18.49596 1 
1.218534 18.49596 -1 
1.5 18.5 -1 
-1.268351 18.10509 1 
-1.268351 18.10509 -1 
-3.666826 17.08812 1 
-3.666826 17.08812 -1 
-5.900293 15.47752 1 
-5.900293 15.47752 -1 
-7.897424 13.32472 1 
-7.897424 13.32472 -1 
-9.59444 10.69848 1 
-9.59444 10.69848 -1 
-10.93714 7.682669 1 
-10.93714 7.682669 -1 
-11.88265 4.373601 1 
-11.88265 4.373601 -1 
-12.40077 0.8769539 1 
-12.40077 0.8769539 -1 
-12.47496 -2.695604 1 
-12.47496 -2.695604 -1 
-12.10284 -6.229979 1 
-12.10284 -6.229979 -1 
-11.29631 -9.613297 1 
-11.29631 -9.613297 -1 
-10.08111 -12.73751 1 
-10.08111 -12.73751 -1 
-8.496051 -15.50284 1 
-8.496051 -15.50284 -1 
-6.591762 -17.82098 1 
-6.591762 -17.82098 -1 
-4.429055 -19.61789 1 
-4.429055 -19.61789 -1 
-2.076997 -20.83618 1 
-2.076997 -20.83618 -1 
0.3892953 -21.43696 1 
0.3892953 -21.43696 -1 
2.891059 -21.40103 1 
2.891059 -21.40103 -1 
5.348399 -20.72954 1 
5.348399 -20.72954 -1 
7.682835 -19.44394 1 
7.682835 -19.44394 -1 
9.819817 -17.58527 1 
9.819817 -17.58527 -1 
11.6911 -15.21291 1 
11.6911 -15.21291 -1 
13.23691 -12.40262 1 
13.23691 -12.40262 -1 
14.4079 -9.244134 1 
14.4079 -9.244134 -1 
15.16666 -5.838335 1 
15.16666 -5.838335 -1 
15.48896 -2.293986 1 
15.48896 -2.293986 -1 
15.36451 1.275718 1 
15.36451 1.275718 -1 
14.79729 4.756778 1 
14.79729 4.756778 -1 
13.8054 8.038021 1 
13.8054 8.038021 -1 
12.42052 11.01466 1 
12.42052 11.01466 -1 
10.68689 13.59163 1 
10.68689 13.59163 -1 
8.659867 15.68663 1 
8.659867 15.68663 -1 
6.404185 17.23276 1 
6.404185 17.23276 -1 
3.991883 18.18064 1 
3.991883 18.18064 -1 
1.5 18.5 1 
-12.8913 18.36525 1 
-20.95902 -16.52297 1 
-20.32618 -24.57478 1 
-18.88607 -25.17599 1 
-21.51079 -23.55888 1 
-22.56607 -19.15386 1 
-22.68808 -20.70964 1 
-21.97038 -17.71146 1 
-10.53336 -20.80647 1 
-18.30508 6.69944 1 
-18.88254 2.77553 1 
-17.3754 10.11495 1 
-18.58719 -5.183005 1 
-17.72192 -9.014218 1 
-22.23618 21.53561 1 
-24.62566 17.95422 1 
-24.61815 16.47606 1 
-14.70422 42.35839 1 
-10.53096 43.97795 1 
-12.06907 43.88437 1 
-7.730243 42.78268 1 
-9.037394 43.59871 1 
-12.08443 25.77515 1 
-3.387318 40.82996 1 
-6.142304 40.18439 1 
22.05349 -22.64306 1 
22.45376 -21.16476 1 
22.38778 -19.63465 1 
21.86175 -18.19629 1 
20.04464 -24.90732 1 
21.22453 -23.93086 1 
-9.973907 -21.27844 1 
-7.269331 -23.09789 1 
7.531886 -22.95179 1 
10.21541 -21.07915 1 
-22.32451 -22.22726 1 
-18.97739 -1.21932 1 
-24.17877 15.06469 1 
-23.38025 20.5996 1 
-23.34593 13.84347 1 
-19.39654 22.23239 1 
-20.86843 22.09621 1 
-16.65277 21.22205 1 
-17.94915 21.93226 1 
24.84937 17.72428 1 
22.05493 21.28224 1 
20.55669 21.71153 1 
24.31086 19.18682 1 
-15.38497 36.59749 1 
-14.44513 35.37632 1 
-15.96545 39.58675 1 
-15.90831 38.04686 1 
-13.30792 27.78069 1 
11.50564 43.32687 1 
13.96545 39.58675 1 
13.55097 41.07092 1 
20.925 -16.98463 1 
19.66544 -16.11336 1 
17.09746 -25.59757 1 
18.62454 -25.48083 1 
14.29208 -24.46086 1 
15.60668 -25.24661 1 
-4.378958 -24.32698 1 
1.660819 -24.90431 1 
4.655852 -24.23779 1 
-17.33076 -25.30396 1 
-16.4037 -12.61504 1 
-14.47704 -24.13758 1 
-24.20064 19.36998 1 
12.77339 18.50734 1 
7.109184 23.18403 1 
-10.50227 20.83366 1 
23.3482 20.4125 1 
17.53337 21.12878 1 
24.49095 14.66625 1 
24.91141 16.16699 1 
22.40885 12.39801 1 
23.62884 13.36788 1 
18.93235 -2.107833 1 
18.94569 1.888927 1 
18.4748 5.837408 1 
-13.9123 32.15958 1 
-13.92734 29.94423 1 
-15.55097 41.07092 1 
-6.733661 41.60736 1 
-10.31693 24.02605 1 
12.44513 35.37632 1 
8.530955 43.97795 1 
7.037393 43.59871 1 
10.06907 43.88437 1 
13.90831 38.04686 1 
13.38497 36.59749 1 
15.65394 -14.16869 1 
-1.376662 -24.93429 1 
-15.81176 -24.9462 1 
12.29215 19.0632 1 
9.82624 21.39706 1 
18.99906 21.65867 1 
17.53171 9.63669 1 
-13.26354 34.31802 1 
-8.092157 22.61922 1 
-0.5151628 40.99308 1 
8.490036 24.16556 1 
10.21336 25.94056 1 
4.142304 40.18439 1 
2.333197 40.66573 1 
4.733661 41.60736 1 
11.38634 27.96387 1 
11.95141 30.1362 1 
-22.19241 12.91913 1 
-13.17807 34.49933 1 
-13.50564 43.32687 1 
12.70422 42.35839 1 
5.730243 42.78268 1 
11.88083 32.35091 1 
17.46669 -9.838955 1 
18.43511 -6.050719 1 
11.17807 34.49933 1 
16.05185 -13.37572 1 
12.77339 18.50734 -1 
17.53171 9.63669 -1 
18.4748 5.837408 -1 
18.93235 -2.107833 -1 
-20.95902 -16.52297 -1 
-22.68808 -20.70964 -1 
-22.56607 -19.15386 -1 
18.94569 1.888927 -1 
18.43511 -6.050719 -1 
-18.97739 -1.21932 -1 
-18.88254 2.77553 -1 
-18.30508 6.69944 -1 
-22.32451 -22.22726 -1 
-17.33076 -25.30396 -1 
-18.88607 -25.17599 -1 
-9.973907 -21.27844 -1 
-10.53336 -20.80647 -1 
17.46669 -9.838955 -1 
7.109184 23.18403 -1 
12.29215 19.0632 -1 
-22.23618 21.53561 -1 
-24.62566 17.95422 -1 
-24.20064 19.36998 -1 
-24.17877 15.06469 -1 
-24.61815 16.47606 -1 
-17.3754 10.11495 -1 
-12.08443 25.77515 -1 
-13.30792 27.78069 -1 
-6.142304 40.18439 -1 
-14.70422 42.35839 -1 
-10.53096 43.97795 -1 
-9.037394 43.59871 -1 
-13.50564 43.32687 -1 
-21.51079 -23.55888 -1 
-20.32618 -24.57478 -1 
7.531886 -22.95179 -1 
-7.269331 -23.09789 -1 
21.86175 -18.19629 -1 
22.05349 -22.64306 -1 
21.22453 -23.93086 -1 
22.38778 -19.63465 -1 
16.05185 -13.37572 -1 
24.84937 17.72428 -1 
18.99906 21.65867 -1 
20.55669 21.71153 -1 
9.82624 21.39706 -1 
-22.19241 12.91913 -1 
-19.39654 22.23239 -1 
-17.94915 21.93226 -1 
-20.86843 22.09621 -1 
-23.34593 13.84347 -1 
11.50564 43.32687 -1 
13.90831 38.04686 -1 
13.38497 36.59749 -1 
-3.387318 40.82996 -1 
-10.31693 24.02605 -1 
-12.06907 43.88437 -1 
-6.733661 41.60736 -1 
-15.96545 39.58675 -1 
-15.55097 41.07092 -1 
-15.38497 36.59749 -1 
-15.90831 38.04686 -1 
-18.58719 -5.183005 -1 
10.21541 -21.07915 -1 
4.655852 -24.23779 -1 
1.660819 -24.90431 -1 
-4.378958 -24.32698 -1 
19.66544 -16.11336 -1 
17.09746 -25.59757 -1 
15.60668 -25.24661 -1 
20.04464 -24.90732 -1 
18.62454 -25.48083 -1 
22.45376 -21.16476 -1 
20.925 -16.98463 -1 
15.65394 -14.16869 -1 
17.53337 21.12878 -1 
24.49095 14.66625 -1 
23.62884 13.36788 -1 
24.91141 16.16699 -1 
22.05493 21.28224 -1 
23.3482 20.4125 -1 
24.31086 19.18682 -1 
-12.8913 18.36525 -1 
13.96545 39.58675 -1 
12.70422 42.35839 -1 
13.55097 41.07092 -1 
12.44513 35.37632 -1 
8.530955 43.97795 -1 
10.06907 43.88437 -1 
5.730243 42.78268 -1 
7.037393 43.59871 -1 
-8.092157 22.61922 -1 
-13.17807 34.49933 -1 
-7.730243 42.78268 -1 
-13.92734 29.94423 -1 
-17.72192 -9.014218 -1 
-16.4037 -12.61504 -1 
-15.81176 -24.9462 -1 
-1.376662 -24.93429 -1 
-16.65277 21.22205 -1 
-23.38025 20.5996 -1 
4.142304 40.18439 -1 
11.88083 32.35091 -1 
11.95141 30.1362 -1 
11.17807 34.49933 -1 
2.333197 40.66573 -1 
8.490036 24.16556 -1 
-14.44513 35.37632 -1 
-13.9123 32.15958 -1 
-14.47704 -24.13758 -1 
14.29208 -24.46086 -1 
22.40885 12.39801 -1 
4.733661 41.60736 -1 
10.21336 25.94056 -1 
-0.5151628 40.99308 -1 
-13.26354 34.31802 -1 
-21.97038 -17.71146 -1 
11.38634 27.96387 -1 
-10.50227 20.83366 -1 
3 0 1 2 
3 3 4 1 
3 5 6 4 
3 7 8 6 
3 9 10 8 
3 11 12 10 
3 13 14 12 
3 15 16 14 
3 17 18 16 
3 19 20 18 
3 21 22 20 
3 23 24 22 
3 25 26 24 
3 27 28 26 
3 29 30 28 
3 31 32 30 
3 33 34 32 
3 35 36 34 
3 37 38 36 
3 39 40 38 
3 41 42 40 
3 43 44 42 
3 45 46 44 
3 47 48 46 
3 49 50 48 
3 51 52 50 
3 53 54 52 
3 55 56 54 
3 57 58 56 
3 59 60 58 
3 61 62 60 
3 63 64 62 
3 65 66 64 
3 67 68 66 
3 69 70 68 
3 71 2 70 
3 70 69 71 
3 68 67 69 
3 66 65 67 
3 64 63 65 
3 62 61 63 
3 60 59 61 
3 58 57 59 
3 56 55 57 
3 54 53 55 
3 52 51 53 
3 50 49 51 
3 48 47 49 
3 46 45 47 
3 44 43 45 
3 42 41 43 
3 40 39 41 
3 38 37 39 
3 36 35 37 
3 34 33 35 
3 32 31 33 
3 30 29 31 
3 28 27 29 
3 26 25 27 
3 24 23 25 
3 22 21 23 
3 20 19 21 
3 18 17 19 
3 16 15 17 
3 14 13 15 
3 12 11 13 
3 10 9 11 
3 8 7 9 
3 6 5 7 
3 4 3 5 
3 1 0 3 
3 2 71 0 
3 72 19 17 
3 73 74 75 
3 76 77 78 
3 76 73 79 
3 17 15 72 
3 29 27 80 
3 73 76 74 
3 79 77 76 
3 19 81 82 
3 19 72 83 
3 84 85 21 
3 86 87 88 
3 15 13 72 
3 89 90 91 
3 89 92 93 
3 94 95 96 
3 97 98 99 
3 100 101 102 
3 80 103 29 
3 29 103 104 
3 105 106 41 
3 78 107 76 
3 83 81 19 
3 19 108 84 
3 88 109 86 
3 87 86 110 
3 111 112 113 
3 111 114 115 
3 72 9 7 
3 13 11 72 
3 116 117 118 
3 117 116 119 
3 96 120 121 
3 96 122 123 
3 93 90 89 
3 96 124 94 
3 125 126 127 
3 101 100 128 
3 102 97 100 
3 129 130 131 
3 129 132 133 
3 104 31 29 
3 134 33 31 
3 135 136 37 
3 136 105 39 
3 106 43 41 
3 75 137 73 
3 138 139 80 
3 21 19 84 
3 85 138 23 
3 110 140 87 
3 115 112 111 
3 65 63 141 
3 142 143 3 
3 11 9 72 
3 119 144 117 
3 145 146 147 
3 145 148 149 
3 150 151 55 
3 151 152 57 
3 96 153 154 
3 123 120 96 
3 96 89 155 
3 89 156 92 
3 94 157 95 
3 158 159 160 
3 158 125 161 
3 125 162 126 
3 125 158 163 
3 99 100 97 
3 133 130 129 
3 45 43 106 
3 132 129 164 
3 31 104 134 
3 165 35 33 
3 35 165 135 
3 41 39 105 
3 137 166 73 
3 80 25 138 
3 23 21 85 
3 113 86 111 
3 141 167 65 
3 168 67 65 
3 3 0 142 
3 7 143 72 
3 118 169 116 
3 149 146 145 
3 170 145 141 
3 57 55 151 
3 152 170 59 
3 96 171 153 
3 155 122 96 
3 89 96 156 
3 172 173 95 
3 174 175 176 
3 177 172 142 
3 161 159 158 
3 163 162 125 
3 158 178 176 
3 176 179 180 
3 131 101 129 
3 164 45 132 
3 33 134 165 
3 39 37 136 
3 138 73 139 
3 138 25 23 
3 109 111 86 
3 181 83 72 
3 65 167 168 
3 142 69 67 
3 0 71 142 
3 7 5 143 
3 147 116 145 
3 141 61 170 
3 59 57 152 
3 96 182 171 
3 91 183 89 
3 172 177 173 
3 142 174 177 
3 127 184 125 
3 158 185 178 
3 180 186 176 
3 187 188 51 
3 188 150 53 
3 106 132 45 
3 37 35 135 
3 82 108 19 
3 72 114 181 
3 67 168 142 
3 5 3 143 
3 170 148 145 
3 170 61 59 
3 121 182 96 
3 176 177 174 
3 176 189 158 
3 176 175 179 
3 190 187 49 
3 53 51 188 
3 27 25 80 
3 111 181 114 
3 71 69 142 
3 55 53 150 
3 157 172 95 
3 186 189 176 
3 47 45 164 
3 51 49 187 
3 166 139 73 
3 169 145 116 
3 160 185 158 
3 49 47 190 
3 63 61 141 
3 154 124 96 
3 128 129 101 
3 164 190 47 
3 172 143 142 
3 56 191 192 
3 192 193 56 
3 194 54 56 
3 191 56 58 
3 195 196 197 
3 56 198 194 
3 199 52 54 
3 58 60 191 
3 200 201 18 
3 201 202 16 
3 195 203 196 
3 195 204 205 
3 30 206 207 
3 54 194 199 
3 208 50 52 
3 209 1 4 
3 66 210 191 
3 60 62 191 
3 211 212 213 
3 211 214 215 
3 16 18 201 
3 202 216 14 
3 217 218 219 
3 220 221 222 
3 221 220 223 
3 195 224 203 
3 205 225 195 
3 226 40 42 
3 30 32 227 
3 207 26 28 
3 228 229 230 
3 229 228 231 
3 52 199 208 
3 232 48 50 
3 233 234 235 
3 209 2 1 
3 236 210 66 
3 62 64 191 
3 237 238 239 
3 237 211 240 
3 215 212 211 
3 211 237 241 
3 14 16 202 
3 242 243 244 
3 245 246 217 
3 223 247 221 
3 248 249 250 
3 248 251 252 
3 253 20 22 
3 225 224 195 
3 42 254 226 
3 255 38 40 
3 256 36 38 
3 257 227 32 
3 207 28 30 
3 258 259 260 
3 258 261 262 
3 231 263 229 
3 261 258 264 
3 50 208 232 
3 48 232 265 
3 266 267 268 
3 266 233 269 
3 270 271 272 
3 233 266 234 
3 273 4 6 
3 209 70 2 
3 209 236 68 
3 191 64 66 
3 240 238 237 
3 241 214 211 
3 216 12 14 
3 242 274 243 
3 242 275 276 
3 277 278 279 
3 277 280 281 
3 245 282 246 
3 248 219 283 
3 222 284 220 
3 252 249 248 
3 219 218 285 
3 286 22 24 
3 22 286 253 
3 287 26 207 
3 195 288 204 
3 40 226 255 
3 38 255 256 
3 289 257 34 
3 227 206 30 
3 262 259 258 
3 264 228 261 
3 265 46 48 
3 269 267 266 
3 235 270 233 
3 4 273 209 
3 66 68 236 
3 237 290 273 
3 213 291 211 
3 216 10 12 
3 292 293 294 
3 277 295 292 
3 276 274 242 
3 281 278 277 
3 296 297 209 
3 297 296 292 
3 219 245 217 
3 283 298 248 
3 250 220 248 
3 285 299 219 
3 253 200 20 
3 300 195 287 
3 195 300 288 
3 256 289 36 
3 32 34 257 
3 301 254 265 
3 230 261 228 
3 265 44 46 
3 302 192 191 
3 272 233 270 
3 68 70 209 
3 239 290 237 
3 216 8 10 
3 292 295 293 
3 292 303 277 
3 279 242 277 
3 292 304 297 
3 245 305 282 
3 284 248 220 
3 299 306 219 
3 24 287 286 
3 197 307 195 
3 34 36 289 
3 260 301 258 
3 265 42 44 
3 268 302 266 
3 273 216 237 
3 216 6 8 
3 294 308 292 
3 244 277 242 
3 305 296 282 
3 306 283 219 
3 207 300 287 
3 265 258 301 
3 191 266 302 
3 18 20 200 
3 303 280 277 
3 298 251 248 
3 42 265 254 
3 6 216 273 
3 209 282 296 
3 209 273 309 
3 193 198 56 
3 309 282 209 
3 308 304 292 
3 24 26 287 
3 292 176 178 
3 303 178 185 
3 280 185 160 
3 281 160 159 
3 278 159 161 
3 279 161 125 
3 242 125 184 
3 275 184 127 
3 276 127 126 
3 274 126 162 
3 243 162 163 
3 244 163 158 
3 277 158 189 
3 189 295 277 
3 158 277 244 
3 163 244 243 
3 162 243 274 
3 126 274 276 
3 127 276 275 
3 184 275 242 
3 125 242 279 
3 161 279 278 
3 159 278 281 
3 160 281 280 
3 185 280 303 
3 178 303 292 
3 186 293 295 
3 180 294 293 
3 179 308 294 
3 175 304 308 
3 174 297 304 
3 142 209 297 
3 297 174 142 
3 304 175 174 
3 308 179 175 
3 294 180 179 
3 293 186 180 
3 295 189 186 
3 168 236 209 
3 167 210 236 
3 141 191 210 
3 210 167 141 
3 236 168 167 
3 209 142 168 
3 145 266 191 
3 191 141 145 
3 266 145 169 
3 234 169 118 
3 235 118 117 
3 270 117 144 
3 271 144 119 
3 272 119 116 
3 233 116 147 
3 269 147 146 
3 267 146 149 
3 268 149 148 
3 148 302 268 
3 149 268 267 
3 146 267 269 
3 147 269 233 
3 116 233 272 
3 119 272 271 
3 144 271 270 
3 117 270 235 
3 118 235 234 
3 169 234 266 
3 170 192 302 
3 302 148 170 
3 152 193 192 
3 151 198 193 
3 150 194 198 
3 188 199 194 
3 187 208 199 
3 190 232 208 
3 164 265 232 
3 232 190 164 
3 208 187 190 
3 199 188 187 
3 194 150 188 
3 198 151 150 
3 193 152 151 
3 192 170 152 
3 129 258 265 
3 265 164 129 
3 258 129 128 
3 264 128 100 
3 228 100 99 
3 231 99 98 
3 263 98 97 
3 229 97 102 
3 230 102 101 
3 261 101 131 
3 262 131 130 
3 259 130 133 
3 260 133 132 
3 132 301 260 
3 133 260 259 
3 130 259 262 
3 131 262 261 
3 101 261 230 
3 102 230 229 
3 97 229 263 
3 98 263 231 
3 99 231 228 
3 100 228 264 
3 128 264 258 
3 106 254 301 
3 301 132 106 
3 105 226 254 
3 136 255 226 
3 135 256 255 
3 165 289 256 
3 134 257 289 
3 104 227 257 
3 103 206 227 
3 80 207 206 
3 206 103 80 
3 227 104 103 
3 257 134 104 
3 289 165 134 
3 256 135 165 
3 255 136 135 
3 226 105 136 
3 254 106 105 
3 139 300 207 
3 207 80 139 
3 300 139 166 
3 288 166 137 
3 204 137 75 
3 205 75 74 
3 225 74 76 
3 224 76 107 
3 203 107 78 
3 196 78 77 
3 197 77 79 
3 307 79 73 
3 73 195 307 
3 79 307 197 
3 77 197 196 
3 78 196 203 
3 107 203 224 
3 76 224 225 
3 74 225 205 
3 75 205 204 
3 137 204 288 
3 166 288 300 
3 138 287 195 
3 195 73 138 
3 85 286 287 
3 84 253 286 
3 108 200 253 
3 82 201 200 
3 81 202 201 
3 83 216 202 
3 202 81 83 
3 201 82 81 
3 200 108 82 
3 253 84 108 
3 286 85 84 
3 287 138 85 
3 181 237 216 
3 216 83 181 
3 237 181 111 
3 241 111 109 
3 214 109 88 
3 215 88 87 
3 212 87 140 
3 213 140 110 
3 291 110 86 
3 211 86 113 
3 240 113 112 
3 238 112 115 
3 239 115 114 
3 114 290 239 
3 115 239 238 
3 112 238 240 
3 113 240 211 
3 86 211 291 
3 110 291 213 
3 140 213 212 
3 87 212 215 
3 88 215 214 
3 109 214 241 
3 111 241 237 
3 72 273 290 
3 290 114 72 
3 143 309 273 
3 172 282 309 
3 309 143 172 
3 273 72 143 
3 157 246 282 
3 94 217 246 
3 124 218 217 
3 154 285 218 
3 153 299 285 
3 171 306 299 
3 182 283 306 
3 306 171 182 
3 299 153 171 
3 285 154 153 
3 218 124 154 
3 217 94 124 
3 246 157 94 
3 282 172 157 
3 283 182 121 
3 298 121 120 
3 251 120 123 
3 252 123 122 
3 249 122 155 
3 250 155 89 
3 220 89 183 
3 223 183 91 
3 247 91 90 
3 221 90 93 
3 222 93 92 
3 284 92 156 
3 248 156 96 
3 96 219 248 
3 156 248 284 
3 92 284 222 
3 93 222 221 
3 90 221 247 
3 91 247 223 
3 183 223 220 
3 89 220 250 
3 155 250 249 
3 122 249 252 
3 123 252 251 
3 120 251 298 
3 121 298 283 
3 95 245 219 
3 173 305 245 
3 177 296 305 
3 176 292 296 
3 296 177 176 
3 305 173 177 
3 245 95 173 
3 219 96 95 
