ply
format ascii 1.0
comment VCGLIB generated
element vertex 420
property float x
property float y
property float z
element face 844
property list uchar int vertex_indices
end_header
-2.086941 48.86071 10 
-2.086941 48.86071 -10 
5 50 -10 
-9.688163 44.92243 10 
-9.688163 44.92243 -10 
-18.06077 36.37368 10 
-18.06077 36.37368 -10 
-25.3597 22.36672 10 
-25.3597 22.36672 -10 
-29.36924 5.394652 10 
-29.36924 5.394652 -10 
-29.65497 -12.70365 10 
-29.65497 -12.70365 -10 
-26.18594 -29.96728 10 
-26.18594 -29.96728 -10 
-19.338 -44.52578 10 
-19.338 -44.52578 -10 
-10.88278 -54.01087 10 
-10.88278 -54.01087 -10 
-3.170007 -58.48056 10 
-3.170007 -58.48056 -10 
3.962415 -59.97583 10 
3.962415 -59.97583 -10 
11.01547 -59.18158 10 
11.01547 -59.18158 -10 
18.51238 -55.73587 10 
18.51238 -55.73587 -10 
26.78423 -48.04818 10 
26.78423 -48.04818 -10 
34.49828 -34.6018 10 
34.49828 -34.6018 -10 
39.01627 -17.94815 10 
39.01627 -17.94815 -10 
39.84871 0.1083989 10 
39.84871 0.1083989 -10 
36.90538 17.61147 10 
36.90538 17.61147 -10 
30.5052 32.66464 10 
30.5052 32.66464 -10 
21.9967 43.07935 10 
21.9967 43.07935 -10 
14.17653 48.07595 10 
14.17653 48.07595 -10 
6.992282 49.91082 10 
6.992282 49.91082 -10 
5 50 10 
-35.67295 129.3623 10 
-26.1199 120.6871 10 
-28.38655 124.4936 10 
10.03769 117.7993 10 
-5.099701 119.9999 10 
4.099953e-09 100 10 
-31.66626 127.4719 10 
-42.84878 61.591 10 
-58.10932 19.92462 10 
-59.98499 -1.78933 10 
-57.38288 -23.36971 10 
38.42842 127.4081 10 
25.67295 129.3623 10 
21.66626 127.4719 10 
7.950494 98.76387 10 
11.49362 117.5828 10 
-40.05708 129.9999 10 
-25.36742 119.422 10 
-13.91571 95.77375 10 
-24.27919 118.4309 10 
-66.46127 -75.89945 10 
-64.30801 -59.05078 10 
-66.68121 -64.37234 10 
-64.36732 68.63765 10 
-75.09529 62.94366 10 
-78.66656 57.94215 10 
-80.55061 52.09239 10 
-52.32293 67.07453 10 
-58.2236 68.79247 10 
-57.98533 22.01589 10 
-59.34985 25.93918 10 
-58.40851 24.06764 10 
-51.54599 -40.94465 10 
18.38655 124.4936 10 
34.43624 129.329 10 
12.94951 117.7995 10 
-7.950494 98.76387 10 
-20.03769 117.7993 10 
-54.94608 116.2708 10 
-54.66539 111.8494 10 
-53.10542 107.7029 10 
7.950494 71.23613 10 
-1.433354e-09 70 10 
-55.58532 -51.51173 10 
-63.8868 -81.12661 10 
-59.91496 -85.38989 10 
-60.50169 -54.63909 10 
-47.22247 63.64605 10 
-78.72148 40.08552 10 
-75.18102 35.06213 10 
-80.5695 45.94675 10 
-70.17398 66.62469 10 
-45.1945 62.28039 10 
-60.74478 27.50217 10 
-50.89501 -43.3612 10 
48.15717 -79.7545 10 
69.7476 -74.7636 10 
73.09762 -69.96719 10 
16.1199 120.6871 10 
15.36742 119.422 10 
30.05708 129.9999 10 
14.27919 118.4309 10 
-22.94951 117.7995 10 
-21.49362 117.5828 10 
-50.40224 104.1929 10 
-53.92299 120.5813 10 
-64.48828 29.30227 10 
-62.49766 28.64943 10 
73.48167 -52.9207 10 
70.35107 -47.97828 10 
74.91634 -64.40658 10 
75.04811 -58.55758 10 
65.15293 -78.38537 10 
53.8752 -80.99236 10 
59.70679 -80.52258 10 
13.91571 95.77375 10 
-17.56195 92.17722 10 
-44.43624 129.329 10 
-48.42842 127.4081 10 
-46.79166 101.6256 10 
-45.67617 100.8526 10 
31.30267 68.24978 10 
13.91571 74.22625 10 
-67.41987 -70.15209 10 
-70.28245 31.3509 10 
-40.4044 61.64228 10 
-36.12074 63.87894 10 
35.02049 -69.80502 10 
55.11722 -31.61131 10 
59.47688 -10.54095 10 
44.66539 111.8494 10 
36.79166 101.6256 10 
40.40224 104.1929 10 
17.56195 92.17722 10 
35.67617 100.8526 10 
-51.68537 124.4049 10 
-7.950494 71.23613 10 
-49.21764 -89.68992 10 
-43.40014 -89.36169 10 
-54.88287 -88.32744 10 
-38.08965 62.42943 10 
65.92419 -44.15326 10 
38.96739 -72.71663 10 
43.042 -76.91493 10 
60.57982 -41.77294 10 
58.61317 -40.92647 10 
54.73843 -33.71862 10 
56.94146 -39.58871 10 
55.68444 -37.85547 10 
37.22258 -70.95089 10 
59.39669 11.31629 10 
34.22417 95.87996 10 
19.43136 88.55141 10 
43.92299 120.5813 10 
41.68537 124.4049 10 
44.94608 116.2708 10 
17.56195 77.82278 10 
30.45014 70.60627 10 
30.21025 73.10073 10 
62.36992 37.0998 10 
75.75679 47.53101 10 
77.61365 53.04837 10 
67.79777 39.20398 10 
56.42411 27.20521 10 
-51.02257 -45.86065 10 
-19.41396 -75.69645 10 
-5.116793 -79.70856 10 
-37.92413 -87.37061 10 
-29.78732 -79.20267 10 
-28.34878 -77.27805 10 
54.93213 -35.85092 10 
34.80966 99.80807 10 
34.89598 92.16212 10 
-44.25597 98.56898 10 
-44.05589 97.22665 10 
-44.80966 99.80807 10 
-17.56195 77.82278 10 
-35.9673 68.88009 10 
-35.72618 66.36977 10 
-19.43136 81.44859 10 
-36.82877 71.25027 10 
19.43136 81.44859 10 
30.59808 75.57651 10 
72.38974 42.7821 10 
56.14524 29.32968 10 
73.25763 69.45093 10 
68.90801 73.32004 10 
-53.48838 -50.14558 10 
-51.91618 -48.19837 10 
-21.72517 -75.03925 10 
-26.40361 -75.86739 10 
-33.2544 -83.88567 10 
32.57316 -69.38933 10 
34.25597 98.56898 10 
34.05589 97.22665 10 
-39.16304 74.39555 10 
-38.25581 73.32956 10 
-13.91571 74.22625 10 
77.803 58.86673 10 
60.36313 36.3488 10 
58.62767 35.0921 10 
56.44026 31.45197 10 
57.28801 33.41983 10 
57.86625 76.60104 10 
52.1096 75.73495 10 
63.62846 75.77267 10 
33.4554 66.99515 10 
-24.12729 -75.09799 10 
30.11622 -69.74387 10 
-19.43136 88.55141 10 
-44.96752 88.7913 10 
-43.42679 81.6692 10 
-20 85 10 
31.58925 77.87812 10 
76.30879 64.49315 10 
35.88971 66.46368 10 
40.65411 67.70128 10 
38.36947 66.70692 10 
46.84621 73.2478 10 
42.52202 69.3503 10 
23.42853 -73.64906 10 
27.88625 -70.83448 10 
20 85 10 
-44.22417 95.87996 10 
34.45856 85.08067 10 
9.042253 -79.08631 10 
43.10542 107.7029 10 
48.15717 -79.7545 -10 
74.91634 -64.40658 -10 
73.09762 -69.96719 -10 
-35.67295 129.3623 -10 
-31.66626 127.4719 -10 
-28.38655 124.4936 -10 
65.15293 -78.38537 -10 
59.70679 -80.52258 -10 
69.7476 -74.7636 -10 
-26.1199 120.6871 -10 
-40.05708 129.9999 -10 
10.03769 117.7993 -10 
7.950494 98.76387 -10 
4.099953e-09 100 -10 
43.042 -76.91493 -10 
73.48167 -52.9207 -10 
75.04811 -58.55758 -10 
65.92419 -44.15326 -10 
70.35107 -47.97828 -10 
-13.91571 95.77375 -10 
-25.36742 119.422 -10 
-5.099701 119.9999 -10 
38.42842 127.4081 -10 
18.38655 124.4936 -10 
21.66626 127.4719 -10 
38.36947 66.70692 -10 
59.39669 11.31629 -10 
59.47688 -10.54095 -10 
55.11722 -31.61131 -10 
35.02049 -69.80502 -10 
53.8752 -80.99236 -10 
-60.50169 -54.63909 -10 
-67.41987 -70.15209 -10 
-66.68121 -64.37234 -10 
-54.88287 -88.32744 -10 
-59.91496 -85.38989 -10 
-21.49362 117.5828 -10 
-20.03769 117.7993 -10 
11.49362 117.5828 -10 
25.67295 129.3623 -10 
30.05708 129.9999 -10 
34.43624 129.329 -10 
16.1199 120.6871 -10 
-36.12074 63.87894 -10 
-7.950494 71.23613 -10 
56.42411 27.20521 -10 
32.57316 -69.38933 -10 
56.94146 -39.58871 -10 
58.61317 -40.92647 -10 
37.22258 -70.95089 -10 
54.93213 -35.85092 -10 
55.68444 -37.85547 -10 
38.96739 -72.71663 -10 
-66.46127 -75.89945 -10 
-63.8868 -81.12661 -10 
-53.10542 107.7029 -10 
-54.66539 111.8494 -10 
-54.94608 116.2708 -10 
-53.92299 120.5813 -10 
-46.79166 101.6256 -10 
-50.40224 104.1929 -10 
-22.94951 117.7995 -10 
-24.27919 118.4309 -10 
-7.950494 98.76387 -10 
12.94951 117.7995 -10 
13.91571 95.77375 -10 
15.36742 119.422 -10 
13.91571 74.22625 -10 
-1.433354e-09 70 -10 
42.52202 69.3503 -10 
77.803 58.86673 -10 
77.61365 53.04837 -10 
73.25763 69.45093 -10 
46.84621 73.2478 -10 
52.1096 75.73495 -10 
56.14524 29.32968 -10 
30.11622 -69.74387 -10 
54.73843 -33.71862 -10 
60.57982 -41.77294 -10 
-17.56195 92.17722 -10 
-45.67617 100.8526 -10 
-51.68537 124.4049 -10 
-48.42842 127.4081 -10 
14.27919 118.4309 -10 
7.950494 71.23613 -10 
-42.84878 61.591 -10 
-57.38288 -23.36971 -10 
-59.98499 -1.78933 -10 
76.30879 64.49315 -10 
57.86625 76.60104 -10 
63.62846 75.77267 -10 
56.44026 31.45197 -10 
58.62767 35.0921 -10 
57.28801 33.41983 -10 
35.88971 66.46368 -10 
-64.30801 -59.05078 -10 
-44.43624 129.329 -10 
44.94608 116.2708 -10 
44.66539 111.8494 -10 
17.56195 77.82278 -10 
30.21025 73.10073 -10 
30.45014 70.60627 -10 
31.30267 68.24978 -10 
-13.91571 74.22625 -10 
-17.56195 77.82278 -10 
-35.9673 68.88009 -10 
-36.82877 71.25027 -10 
-58.10932 19.92462 -10 
-80.55061 52.09239 -10 
-58.2236 68.79247 -10 
-52.32293 67.07453 -10 
-64.36732 68.63765 -10 
-78.66656 57.94215 -10 
40.65411 67.70128 -10 
-37.92413 -87.37061 -10 
-28.34878 -77.27805 -10 
-55.58532 -51.51173 -10 
-49.21764 -89.68992 -10 
-43.40014 -89.36169 -10 
-44.80966 99.80807 -10 
43.92299 120.5813 -10 
41.68537 124.4049 -10 
34.22417 95.87996 -10 
34.89598 92.16212 -10 
19.43136 88.55141 -10 
36.79166 101.6256 -10 
35.67617 100.8526 -10 
43.10542 107.7029 -10 
40.40224 104.1929 -10 
30.59808 75.57651 -10 
19.43136 81.44859 -10 
31.58925 77.87812 -10 
-19.43136 81.44859 -10 
-38.25581 73.32956 -10 
-35.72618 66.36977 -10 
-57.98533 22.01589 -10 
-75.09529 62.94366 -10 
-47.22247 63.64605 -10 
-78.72148 40.08552 -10 
-80.5695 45.94675 -10 
-70.28245 31.3509 -10 
-75.18102 35.06213 -10 
75.75679 47.53101 -10 
72.38974 42.7821 -10 
68.90801 73.32004 -10 
62.36992 37.0998 -10 
60.36313 36.3488 -10 
-29.78732 -79.20267 -10 
-19.41396 -75.69645 -10 
-50.89501 -43.3612 -10 
-51.02257 -45.86065 -10 
-44.25597 98.56898 -10 
-19.43136 88.55141 -10 
-44.05589 97.22665 -10 
17.56195 92.17722 -10 
34.05589 97.22665 -10 
34.80966 99.80807 -10 
-40.4044 61.64228 -10 
-59.34985 25.93918 -10 
-60.74478 27.50217 -10 
-58.40851 24.06764 -10 
-45.1945 62.28039 -10 
-62.49766 28.64943 -10 
-70.17398 66.62469 -10 
67.79777 39.20398 -10 
27.88625 -70.83448 -10 
33.4554 66.99515 -10 
-26.40361 -75.86739 -10 
-5.116793 -79.70856 -10 
-51.54599 -40.94465 -10 
-51.91618 -48.19837 -10 
-53.48838 -50.14558 -10 
34.25597 98.56898 -10 
-64.48828 29.30227 -10 
23.42853 -73.64906 -10 
9.042253 -79.08631 -10 
-24.12729 -75.09799 -10 
-21.72517 -75.03925 -10 
-44.96752 88.7913 -10 
-20 85 -10 
-39.16304 74.39555 -10 
-38.08965 62.42943 -10 
-43.42679 81.6692 -10 
34.45856 85.08067 -10 
20 85 -10 
-44.22417 95.87996 -10 
-33.2544 -83.88567 -10 
3 0 1 2 
3 3 4 1 
3 5 6 4 
3 7 8 6 
3 9 10 8 
3 11 12 10 
3 13 14 12 
3 15 16 14 
3 17 18 16 
3 19 20 18 
3 21 22 20 
3 23 24 22 
3 25 26 24 
3 27 28 26 
3 29 30 28 
3 31 32 30 
3 33 34 32 
3 35 36 34 
3 37 38 36 
3 39 40 38 
3 41 42 40 
3 43 44 42 
3 45 2 44 
3 44 43 45 
3 42 41 43 
3 40 39 41 
3 38 37 39 
3 36 35 37 
3 34 33 35 
3 32 31 33 
3 30 29 31 
3 28 27 29 
3 26 25 27 
3 24 23 25 
3 22 21 23 
3 20 19 21 
3 18 17 19 
3 16 15 17 
3 14 13 15 
3 12 11 13 
3 10 9 11 
3 8 7 9 
3 6 5 7 
3 4 3 5 
3 1 0 3 
3 2 45 0 
3 46 47 48 
3 49 50 51 
3 48 52 46 
3 53 54 55 
3 53 56 9 
3 57 58 59 
3 60 61 49 
3 62 63 47 
3 64 65 63 
3 66 67 68 
3 69 70 71 
3 72 73 74 
3 53 75 54 
3 53 76 77 
3 56 11 9 
3 56 78 13 
3 59 79 57 
3 58 57 80 
3 60 81 61 
3 63 62 64 
3 64 82 83 
3 84 85 86 
3 87 88 45 
3 89 90 91 
3 66 92 67 
3 93 94 95 
3 93 72 96 
3 69 97 70 
3 72 93 73 
3 77 75 53 
3 53 98 99 
3 13 11 56 
3 13 78 100 
3 101 102 103 
3 57 104 105 
3 80 106 58 
3 60 107 81 
3 50 83 82 
3 64 108 65 
3 83 109 64 
3 110 111 84 
3 88 0 45 
3 89 66 90 
3 66 89 92 
3 96 94 93 
3 74 69 72 
3 93 112 113 
3 99 76 53 
3 100 15 13 
3 101 114 115 
3 101 116 117 
3 101 118 102 
3 101 119 120 
3 121 105 107 
3 79 104 57 
3 82 51 50 
3 109 108 64 
3 122 123 124 
3 111 125 126 
3 86 110 84 
3 45 43 87 
3 43 127 128 
3 68 129 66 
3 71 72 69 
3 93 130 112 
3 9 131 53 
3 131 9 7 
3 5 3 132 
3 117 114 101 
3 120 118 101 
3 133 134 135 
3 136 137 138 
3 136 139 140 
3 121 139 136 
3 105 121 57 
3 46 62 47 
3 124 141 122 
3 122 64 62 
3 110 125 111 
3 132 0 142 
3 128 87 43 
3 89 143 144 
3 91 145 89 
3 113 98 93 
3 7 146 131 
3 146 7 5 
3 103 116 101 
3 147 148 149 
3 148 150 151 
3 133 152 134 
3 133 153 154 
3 153 133 155 
3 133 156 29 
3 140 137 136 
3 157 139 158 
3 121 159 160 
3 136 161 121 
3 51 60 49 
3 62 123 122 
3 126 122 111 
3 88 142 0 
3 162 163 164 
3 165 166 167 
3 166 165 168 
3 35 33 156 
3 37 35 169 
3 145 143 89 
3 170 17 15 
3 95 130 93 
3 132 146 5 
3 171 172 19 
3 173 174 175 
3 149 101 147 
3 148 147 150 
3 133 176 152 
3 155 151 153 
3 156 31 29 
3 139 177 140 
3 158 178 157 
3 161 159 121 
3 141 111 122 
3 122 179 180 
3 126 181 122 
3 182 183 184 
3 182 185 186 
3 127 162 128 
3 187 162 188 
3 162 127 163 
3 168 189 166 
3 169 190 37 
3 37 191 192 
3 173 193 89 
3 173 17 194 
3 15 100 170 
3 55 56 53 
3 17 195 171 
3 17 175 196 
3 173 197 174 
3 151 155 148 
3 154 176 133 
3 156 33 31 
3 198 29 27 
3 139 199 177 
3 157 200 139 
3 107 60 121 
3 181 179 122 
3 186 183 182 
3 185 201 202 
3 142 203 132 
3 164 188 162 
3 204 205 165 
3 37 206 205 
3 37 207 208 
3 156 169 35 
3 37 209 210 
3 192 211 37 
3 39 212 127 
3 194 193 173 
3 113 99 98 
3 17 213 195 
3 175 17 173 
3 135 156 133 
3 27 214 198 
3 200 199 139 
3 180 215 122 
3 216 217 218 
3 202 186 185 
3 188 219 187 
3 205 204 37 
3 190 207 37 
3 211 209 37 
3 37 204 220 
3 39 221 212 
3 39 222 223 
3 210 224 225 
3 170 194 17 
3 196 213 17 
3 226 25 23 
3 29 198 133 
3 25 227 214 
3 178 158 228 
3 160 57 121 
3 215 229 216 
3 203 182 132 
3 219 230 228 
3 208 206 37 
3 220 191 37 
3 223 221 39 
3 225 39 210 
3 19 17 171 
3 23 231 226 
3 214 27 25 
3 138 232 136 
3 215 180 229 
3 218 217 201 
3 228 187 219 
3 210 39 37 
3 225 222 39 
3 144 173 89 
3 172 231 21 
3 115 147 101 
3 218 215 216 
3 184 132 182 
3 127 41 39 
3 21 19 172 
3 226 227 25 
3 201 185 218 
3 127 43 41 
3 23 21 231 
3 167 204 165 
3 228 230 178 
3 3 0 132 
3 233 234 235 
3 236 237 238 
3 233 239 240 
3 235 241 233 
3 242 243 236 
3 244 245 246 
3 241 239 233 
3 247 248 249 
3 247 250 251 
3 252 243 253 
3 238 242 236 
3 246 254 244 
3 255 256 257 
3 258 259 260 
3 258 261 34 
3 30 261 262 
3 240 263 233 
3 251 248 247 
3 264 265 266 
3 264 267 268 
3 252 269 270 
3 242 253 243 
3 244 271 245 
3 272 273 274 
3 255 275 256 
3 42 276 277 
3 258 278 259 
3 261 32 34 
3 262 279 30 
3 280 281 282 
3 262 283 284 
3 285 282 281 
3 249 234 247 
3 264 286 265 
3 268 287 264 
3 288 289 290 
3 291 292 293 
3 252 294 269 
3 253 295 252 
3 254 246 296 
3 271 297 245 
3 257 272 255 
3 255 298 299 
3 300 40 42 
3 277 301 42 
3 302 303 304 
3 305 306 307 
3 258 308 278 
3 279 309 28 
3 30 32 261 
3 284 280 262 
3 262 261 310 
3 281 311 285 
3 233 247 234 
3 287 286 264 
3 293 288 291 
3 291 312 313 
3 312 314 315 
3 295 294 252 
3 297 316 245 
3 299 275 255 
3 298 245 316 
3 301 317 42 
3 318 319 320 
3 302 321 303 
3 305 322 323 
3 305 302 306 
3 258 324 308 
3 258 325 326 
3 26 28 309 
3 34 327 258 
3 310 283 262 
3 247 285 250 
3 266 328 264 
3 313 292 291 
3 312 329 243 
3 312 291 314 
3 296 270 254 
3 316 299 298 
3 298 330 331 
3 332 333 334 
3 335 40 300 
3 276 336 277 
3 337 338 339 
3 320 340 318 
3 341 342 343 
3 344 341 345 
3 302 305 321 
3 307 322 305 
3 326 324 258 
3 325 258 346 
3 28 30 279 
3 311 250 285 
3 347 18 348 
3 349 350 267 
3 349 347 351 
3 312 352 313 
3 315 329 312 
3 274 255 272 
3 298 353 330 
3 298 255 354 
3 355 356 357 
3 331 358 359 
3 331 360 361 
3 332 362 333 
3 363 364 362 
3 42 317 300 
3 365 339 366 
3 337 367 338 
3 340 368 318 
3 341 344 342 
3 345 369 344 
3 370 371 372 
3 370 373 374 
3 302 375 376 
3 323 377 305 
3 302 378 379 
3 346 379 325 
3 282 262 280 
3 348 380 347 
3 381 18 20 
3 14 16 382 
3 319 12 14 
3 383 382 16 
3 351 350 349 
3 312 384 352 
3 312 385 386 
3 270 296 252 
3 354 353 298 
3 387 388 355 
3 387 359 389 
3 361 358 331 
3 362 332 363 
3 276 337 336 
3 339 365 337 
3 318 390 10 
3 318 391 392 
3 368 393 318 
3 370 394 395 
3 369 396 344 
3 374 371 370 
3 304 375 302 
3 302 397 378 
3 309 398 26 
3 34 335 399 
3 18 400 348 
3 20 401 381 
3 14 402 319 
3 18 403 383 
3 347 404 403 
3 264 349 267 
3 386 384 312 
3 331 387 298 
3 387 405 388 
3 359 387 331 
3 300 332 335 
3 337 276 367 
3 335 34 36 
3 10 319 318 
3 393 391 318 
3 395 406 370 
3 372 341 370 
3 379 346 302 
3 399 327 34 
3 407 408 24 
3 18 409 400 
3 381 410 18 
3 16 18 383 
3 349 404 347 
3 411 385 412 
3 243 252 312 
3 389 405 387 
3 366 413 365 
3 36 38 335 
3 390 414 8 
3 392 394 318 
3 343 370 341 
3 260 261 258 
3 26 398 407 
3 410 409 18 
3 403 18 347 
3 412 415 411 
3 357 387 355 
3 356 416 417 
3 364 363 417 
3 38 40 335 
3 6 414 276 
3 10 12 319 
3 394 392 395 
3 24 26 407 
3 401 20 22 
3 382 402 14 
3 411 418 385 
3 417 357 356 
3 334 335 332 
3 412 365 413 
3 276 4 6 
3 406 373 370 
3 408 22 24 
3 380 419 347 
3 290 291 288 
3 413 415 412 
3 8 10 390 
3 276 44 2 
3 22 408 401 
3 417 416 364 
3 276 1 4 
3 276 42 44 
3 418 386 385 
3 2 1 276 
3 6 8 414 
3 376 397 302 
3 56 319 402 
3 55 320 319 
3 54 340 320 
3 320 55 54 
3 319 56 55 
3 402 78 56 
3 226 407 398 
3 231 408 407 
3 172 401 408 
3 171 381 401 
3 401 172 171 
3 408 231 172 
3 407 226 231 
3 398 227 226 
3 156 259 278 
3 135 260 259 
3 134 261 260 
3 260 135 134 
3 259 156 135 
3 278 169 156 
3 201 413 366 
3 217 415 413 
3 216 411 415 
3 229 418 411 
3 411 216 229 
3 415 217 216 
3 413 201 217 
3 366 202 201 
3 178 356 355 
3 230 416 356 
3 219 364 416 
3 416 230 219 
3 356 178 230 
3 355 157 178 
3 275 104 79 
3 256 79 59 
3 257 59 58 
3 272 58 106 
3 273 106 80 
3 274 80 57 
3 255 57 160 
3 354 160 159 
3 353 159 161 
3 330 161 136 
3 331 136 232 
3 360 232 138 
3 361 138 137 
3 137 358 361 
3 138 361 360 
3 232 360 331 
3 136 331 330 
3 161 330 353 
3 159 353 354 
3 160 354 255 
3 57 255 274 
3 80 274 273 
3 106 273 272 
3 58 272 257 
3 59 257 256 
3 79 256 275 
3 50 254 270 
3 49 244 254 
3 254 50 49 
3 270 83 50 
3 292 125 110 
3 293 110 86 
3 288 86 85 
3 289 85 84 
3 290 84 111 
3 291 111 141 
3 314 141 124 
3 315 124 123 
3 329 123 62 
3 243 62 46 
3 236 46 52 
3 237 52 48 
3 238 48 47 
3 47 242 238 
3 48 238 237 
3 52 237 236 
3 46 236 243 
3 62 243 329 
3 123 329 315 
3 124 315 314 
3 141 314 291 
3 111 291 290 
3 84 290 289 
3 85 289 288 
3 86 288 293 
3 110 293 292 
3 302 225 224 
3 306 224 210 
3 307 210 209 
3 322 209 211 
3 323 211 192 
3 377 192 191 
3 305 191 220 
3 321 220 204 
3 303 204 167 
3 304 167 166 
3 375 166 189 
3 376 189 168 
3 397 168 165 
3 165 378 397 
3 168 397 376 
3 189 376 375 
3 166 375 304 
3 167 304 303 
3 204 303 321 
3 220 321 305 
3 191 305 377 
3 192 377 323 
3 211 323 322 
3 209 322 307 
3 210 307 306 
3 224 306 302 
3 311 150 147 
3 250 147 115 
3 251 115 114 
3 248 114 117 
3 249 117 116 
3 234 116 103 
3 235 103 102 
3 241 102 118 
3 239 118 120 
3 240 120 119 
3 263 119 101 
3 233 101 149 
3 247 149 148 
3 148 285 247 
3 149 247 233 
3 101 233 263 
3 119 263 240 
3 120 240 239 
3 118 239 241 
3 102 241 235 
3 103 235 234 
3 116 234 249 
3 117 249 248 
3 114 248 251 
3 115 251 250 
3 147 250 311 
3 380 174 197 
3 419 197 173 
3 347 173 144 
3 351 144 143 
3 350 143 145 
3 267 145 91 
3 268 91 90 
3 287 90 66 
3 286 66 129 
3 265 129 68 
3 266 68 67 
3 328 67 92 
3 264 92 89 
3 89 349 264 
3 92 264 328 
3 67 328 266 
3 68 266 265 
3 129 265 286 
3 66 286 287 
3 90 287 268 
3 91 268 267 
3 145 267 350 
3 143 350 351 
3 144 351 347 
3 173 347 419 
3 197 419 380 
3 406 112 130 
3 373 130 95 
3 374 95 94 
3 371 94 96 
3 372 96 72 
3 341 72 71 
3 345 71 70 
3 369 70 97 
3 396 97 69 
3 344 69 74 
3 342 74 73 
3 343 73 93 
3 93 370 343 
3 73 343 342 
3 74 342 344 
3 69 344 396 
3 97 396 369 
3 70 369 345 
3 71 345 341 
3 72 341 372 
3 96 372 371 
3 94 371 374 
3 95 374 373 
3 130 373 406 
3 404 349 89 
3 403 404 193 
3 383 403 194 
3 382 383 170 
3 402 382 100 
3 100 78 402 
3 170 100 382 
3 194 170 383 
3 193 194 403 
3 89 193 404 
3 410 381 171 
3 409 410 195 
3 400 409 213 
3 348 400 196 
3 380 348 175 
3 175 174 380 
3 196 175 348 
3 213 196 400 
3 195 213 409 
3 171 195 410 
3 282 285 148 
3 262 282 155 
3 279 262 133 
3 309 279 198 
3 398 309 214 
3 214 227 398 
3 198 214 309 
3 133 198 279 
3 155 133 262 
3 148 155 282 
3 310 261 134 
3 283 310 152 
3 284 283 176 
3 280 284 154 
3 281 280 153 
3 311 281 151 
3 151 150 311 
3 153 151 281 
3 154 153 280 
3 176 154 284 
3 152 176 283 
3 134 152 310 
3 379 378 165 
3 325 379 205 
3 326 325 206 
3 324 326 208 
3 308 324 207 
3 278 308 190 
3 190 169 278 
3 207 190 308 
3 208 207 324 
3 206 208 326 
3 205 206 325 
3 165 205 379 
3 399 335 127 
3 327 399 212 
3 258 327 221 
3 346 258 223 
3 302 346 222 
3 222 225 302 
3 223 222 346 
3 221 223 258 
3 212 221 327 
3 127 212 399 
3 368 340 54 
3 393 368 75 
3 391 393 77 
3 392 391 76 
3 395 392 99 
3 406 395 113 
3 113 112 406 
3 99 113 395 
3 76 99 392 
3 77 76 391 
3 75 77 393 
3 54 75 368 
3 394 370 93 
3 318 394 98 
3 390 318 53 
3 414 390 131 
3 276 414 146 
3 146 132 276 
3 131 146 414 
3 53 131 390 
3 98 53 318 
3 93 98 394 
3 253 242 47 
3 295 253 63 
3 294 295 65 
3 269 294 108 
3 270 269 109 
3 109 83 270 
3 108 109 269 
3 65 108 294 
3 63 65 295 
3 47 63 253 
3 386 418 229 
3 384 386 180 
3 352 384 179 
3 313 352 181 
3 292 313 126 
3 126 125 292 
3 181 126 313 
3 179 181 352 
3 180 179 384 
3 229 180 386 
3 271 244 49 
3 297 271 61 
3 316 297 81 
3 299 316 107 
3 275 299 105 
3 105 104 275 
3 107 105 299 
3 81 107 316 
3 61 81 297 
3 49 61 271 
3 359 358 137 
3 389 359 140 
3 405 389 177 
3 388 405 199 
3 355 388 200 
3 200 157 355 
3 199 200 388 
3 177 199 405 
3 140 177 389 
3 137 140 359 
3 362 364 219 
3 333 362 188 
3 334 333 164 
3 335 334 163 
3 163 127 335 
3 164 163 334 
3 188 164 333 
3 219 188 362 
3 367 276 132 
3 338 367 184 
3 339 338 183 
3 366 339 186 
3 186 202 366 
3 183 186 339 
3 184 183 338 
3 132 184 367 
3 158 357 417 
3 139 387 357 
3 121 298 387 
3 60 245 298 
3 51 246 245 
3 82 296 246 
3 64 252 296 
3 122 312 252 
3 215 385 312 
3 218 412 385 
3 185 365 412 
3 182 337 365 
3 203 336 337 
3 142 277 336 
3 88 301 277 
3 87 317 301 
3 128 300 317 
3 162 332 300 
3 187 363 332 
3 228 417 363 
3 363 187 228 
3 332 162 187 
3 300 128 162 
3 317 87 128 
3 301 88 87 
3 277 142 88 
3 336 203 142 
3 337 182 203 
3 365 185 182 
3 412 218 185 
3 385 215 218 
3 312 122 215 
3 252 64 122 
3 296 82 64 
3 246 51 82 
3 245 60 51 
3 298 121 60 
3 387 139 121 
3 357 158 139 
3 417 228 158 
