ply
format ascii 1.0
comment VCGLIB generated
element vertex 316
property float x
property float y
property float z
element face 636
property list uchar int vertex_indices
end_header
-3.130411 73.29106 10 
-3.130411 73.29106 -10 
7.5 75 -10 
-14.53224 67.38364 10 
-14.53224 67.38364 -10 
-27.09116 54.56052 10 
-27.09116 54.56052 -10 
-37.53636 34.89877 10 
-37.53636 34.89877 -10 
-43.64087 11.15055 10 
-43.64087 11.15055 -10 
-44.81631 -14.39526 10 
-44.81631 -14.39526 -10 
-40.94941 -39.27648 10 
-40.94941 -39.27648 -10 
-32.41285 -61.09503 10 
-32.41285 -61.09503 -10 
-20.02942 -77.74798 10 
-20.02942 -77.74798 -10 
-8.100302 -86.27357 10 
-8.100302 -86.27357 -10 
2.787868 -89.66702 10 
2.787868 -89.66702 -10 
13.31858 -89.49174 10 
13.31858 -89.49174 -10 
24.28844 -85.66808 10 
24.28844 -85.66808 -10 
36.34543 -76.43166 10 
36.34543 -76.43166 -10 
48.40854 -59.20791 10 
48.40854 -59.20791 -10 
56.52881 -37.00044 10 
56.52881 -37.00044 -10 
59.92358 -11.94966 10 
59.92358 -11.94966 -10 
58.26567 13.52999 10 
58.26567 13.52999 -10 
51.71485 36.98272 10 
51.71485 36.98272 -10 
40.90252 56.14812 10 
40.90252 56.14812 -10 
28.43483 68.15711 10 
28.43483 68.15711 -10 
17.13147 73.59979 10 
17.13147 73.59979 -10 
7.5 75 10 
99.2865 96.37984 10 
90.63297 99.46642 10 
81.45113 99.78935 10 
72.60213 97.31837 10 
106.6001 90.81911 10 
64.91593 92.2852 10 
114.6385 65.35699 10 
114.6538 74.54449 10 
106.5308 49.10922 10 
111.8435 56.60495 10 
9.425741 106.8542 10 
-2.5 105 10 
44.97601 103.9415 10 
18.37356 111.3394 10 
111.8878 83.30577 10 
64.18109 160.7384 10 
51.04534 194.1727 10 
44.1876 194.9853 10 
-87.80209 -118.6365 10 
-103.8681 -89.18949 10 
-103.3851 -98.04282 10 
-52.43742 97.52782 10 
-14.42574 106.8542 10 
90.53502 40.51503 10 
99.19875 43.57283 10 
-74.71053 155.475 10 
-82.45069 173.9888 10 
-81.84479 167.1097 10 
-32.5 127.5 10 
-32.23645 175.9977 10 
-65.88911 145.3574 10 
17.23645 175.9977 10 
-3.944599 179.9209 10 
-2.5 150 10 
-25.59575 177.9046 10 
-14.42574 148.1458 10 
37.40639 193.6799 10 
-100.3354 -106.3683 10 
-97.19279 -72.97122 10 
-101.7421 -80.58167 10 
-100.4155 36.86608 10 
-118.4009 55.33617 10 
-114.3454 47.46994 10 
44.0049 111.917 10 
23.84293 116.7342 10 
-79.18109 160.7384 10 
-68.85423 151.8154 10 
-72.3336 191.3184 10 
-77.46004 186.6915 10 
-52.40639 193.6799 10 
-59.1876 194.9853 10 
-41.56135 185.3944 10 
-46.3405 190.3793 10 
-67.49873 134.7071 10 
-65.69613 124.0487 10 
-59.96371 113.1654 10 
-23.37356 143.6606 10 
31.3405 190.3793 10 
57.33361 191.3184 10 
67.45069 173.9888 10 
65.94173 180.7276 10 
66.84479 167.1097 10 
-79.41332 -121.5076 10 
-79.36885 -56.57774 10 
-82.59097 -63.25639 10 
44.4651 -104.3316 10 
-108.1711 41.1293 10 
-91.75343 35.05128 10 
-118.9591 72.83392 10 
-119.9847 64.04343 10 
-109.6557 87.66394 10 
-115.4132 80.94266 10 
50.2613 122.8224 10 
27.5 127.5 10 
26.64704 122.1729 10 
-23.37356 111.3394 10 
-28.84293 116.7342 10 
-52.65026 105.3636 10 
57.18324 92.66501 10 
-80.94173 180.7276 10 
-66.04534 194.1727 10 
-31.64704 122.1729 10 
59.71053 155.475 10 
26.56135 185.3944 10 
23.51912 179.1949 10 
-70.5517 -121.8012 10 
-61.99128 -119.4916 10 
-94.98526 -113.4387 10 
-90.61765 -67.02293 10 
-41.34411 -106.5888 10 
-19.6247 -117.1124 10 
22.99553 -116.0169 10 
50.68253 -99.16344 10 
-102.1876 92.41283 10 
-61.89619 87.11537 10 
86.29278 34.08632 10 
-38.51912 179.1949 10 
-28.84293 138.2658 10 
50.88911 145.3574 10 
53.85423 151.8154 10 
62.46004 186.6915 10 
57.90318 -99.87019 10 
102.7411 -60.32498 10 
95.38273 -55.15037 10 
109.6719 -93.5872 10 
111.8631 -84.86246 10 
81.10853 -111.9868 10 
98.24606 -107.2203 10 
104.9927 -101.2701 10 
64.28442 -106.2107 10 
-54.47982 -114.7807 10 
1.662296 -119.9795 10 
-84.81158 94.54794 10 
-93.65878 94.77605 10 
-31.64704 132.8271 10 
52.46666 133.5001 10 
26.64704 132.8271 10 
23.84293 138.2658 10 
51.2504 144.1362 10 
9.425741 148.1458 10 
18.37356 143.6606 10 
108.2346 -67.44847 10 
111.3692 -75.88035 10 
90.03869 -110.9029 10 
72.25853 -110.3744 10 
-69.20246 86.62088 10 
-76.41593 91.74833 10 
89.34241 14.47968 10 
-48.67344 -108.08 10 
-87.27366 29.31236 10 
-89.99393 -1.393418 10 
-86.73961 -32.00669 10 
89.15155 -16.43853 10 
86.82105 -52.38991 10 
83.04202 -46.26539 10 
81.45113 99.78935 -10 
90.63297 99.46642 -10 
99.2865 96.37984 -10 
106.6001 90.81911 -10 
72.60213 97.31837 -10 
64.91593 92.2852 -10 
114.6385 65.35699 -10 
111.8435 56.60495 -10 
111.8878 83.30577 -10 
114.6538 74.54449 -10 
-2.5 105 -10 
44.0049 111.917 -10 
44.97601 103.9415 -10 
-14.42574 106.8542 -10 
-52.43742 97.52782 -10 
-23.37356 111.3394 -10 
9.425741 106.8542 -10 
26.56135 185.3944 -10 
62.46004 186.6915 -10 
65.94173 180.7276 -10 
51.04534 194.1727 -10 
31.3405 190.3793 -10 
37.40639 193.6799 -10 
106.5308 49.10922 -10 
99.19875 43.57283 -10 
23.84293 138.2658 -10 
50.88911 145.3574 -10 
51.2504 144.1362 -10 
52.46666 133.5001 -10 
50.2613 122.8224 -10 
27.5 127.5 -10 
18.37356 111.3394 -10 
67.45069 173.9888 -10 
66.84479 167.1097 -10 
57.33361 191.3184 -10 
44.1876 194.9853 -10 
90.53502 40.51503 -10 
86.29278 34.08632 -10 
-28.84293 116.7342 -10 
-52.65026 105.3636 -10 
26.64704 132.8271 -10 
26.64704 122.1729 -10 
23.84293 116.7342 -10 
59.71053 155.475 -10 
53.85423 151.8154 -10 
57.18324 92.66501 -10 
-31.64704 122.1729 -10 
64.18109 160.7384 -10 
18.37356 143.6606 -10 
17.23645 175.9977 -10 
57.90318 -99.87019 -10 
111.3692 -75.88035 -10 
111.8631 -84.86246 -10 
-32.5 127.5 -10 
23.51912 179.1949 -10 
-25.59575 177.9046 -10 
-3.944599 179.9209 -10 
-65.88911 145.3574 -10 
-68.85423 151.8154 -10 
-38.51912 179.1949 -10 
-2.5 150 -10 
-14.42574 148.1458 -10 
-52.40639 193.6799 -10 
-46.3405 190.3793 -10 
-80.94173 180.7276 -10 
-77.46004 186.6915 -10 
-72.3336 191.3184 -10 
-66.04534 194.1727 -10 
-74.71053 155.475 -10 
-79.18109 160.7384 -10 
-87.80209 -118.6365 -10 
-100.3354 -106.3683 -10 
-103.3851 -98.04282 -10 
81.10853 -111.9868 -10 
72.25853 -110.3744 -10 
98.24606 -107.2203 -10 
90.03869 -110.9029 -10 
108.2346 -67.44847 -10 
89.34241 14.47968 -10 
89.15155 -16.43853 -10 
83.04202 -46.26539 -10 
-32.23645 175.9977 -10 
-67.49873 134.7071 -10 
-31.64704 132.8271 -10 
-23.37356 143.6606 -10 
-59.1876 194.9853 -10 
-82.45069 173.9888 -10 
-81.84479 167.1097 -10 
-102.1876 92.41283 -10 
-100.4155 36.86608 -10 
-108.1711 41.1293 -10 
-103.8681 -89.18949 -10 
-101.7421 -80.58167 -10 
-94.98526 -113.4387 -10 
109.6719 -93.5872 -10 
104.9927 -101.2701 -10 
102.7411 -60.32498 -10 
86.82105 -52.38991 -10 
95.38273 -55.15037 -10 
9.425741 148.1458 -10 
-65.69613 124.0487 -10 
-28.84293 138.2658 -10 
-118.9591 72.83392 -10 
-115.4132 80.94266 -10 
-109.6557 87.66394 -10 
-118.4009 55.33617 -10 
-119.9847 64.04343 -10 
-114.3454 47.46994 -10 
50.68253 -99.16344 -10 
44.4651 -104.3316 -10 
-41.34411 -106.5888 -10 
-82.59097 -63.25639 -10 
-97.19279 -72.97122 -10 
-90.61765 -67.02293 -10 
-59.96371 113.1654 -10 
-41.56135 185.3944 -10 
-91.75343 35.05128 -10 
-84.81158 94.54794 -10 
-76.41593 91.74833 -10 
-93.65878 94.77605 -10 
22.99553 -116.0169 -10 
-79.36885 -56.57774 -10 
-70.5517 -121.8012 -10 
-79.41332 -121.5076 -10 
-54.47982 -114.7807 -10 
-61.99128 -119.4916 -10 
-61.89619 87.11537 -10 
1.662296 -119.9795 -10 
-19.6247 -117.1124 -10 
-48.67344 -108.08 -10 
64.28442 -106.2107 -10 
-86.73961 -32.00669 -10 
-69.20246 86.62088 -10 
-87.27366 29.31236 -10 
-89.99393 -1.393418 -10 
3 0 1 2 
3 3 4 1 
3 5 6 4 
3 7 8 6 
3 9 10 8 
3 11 12 10 
3 13 14 12 
3 15 16 14 
3 17 18 16 
3 19 20 18 
3 21 22 20 
3 23 24 22 
3 25 26 24 
3 27 28 26 
3 29 30 28 
3 31 32 30 
3 33 34 32 
3 35 36 34 
3 37 38 36 
3 39 40 38 
3 41 42 40 
3 43 44 42 
3 45 2 44 
3 44 43 45 
3 42 41 43 
3 40 39 41 
3 38 37 39 
3 36 35 37 
3 34 33 35 
3 32 31 33 
3 30 29 31 
3 28 27 29 
3 26 25 27 
3 24 23 25 
3 22 21 23 
3 20 19 21 
3 18 17 19 
3 16 15 17 
3 14 13 15 
3 12 11 13 
3 10 9 11 
3 8 7 9 
3 6 5 7 
3 4 3 5 
3 1 0 3 
3 2 45 0 
3 46 47 48 
3 49 50 46 
3 48 49 46 
3 51 52 53 
3 51 54 55 
3 45 56 57 
3 45 58 59 
3 51 60 50 
3 55 52 51 
3 61 62 63 
3 64 65 66 
3 67 45 68 
3 59 56 45 
3 53 60 51 
3 51 69 70 
3 71 72 73 
3 74 75 76 
3 77 78 79 
3 78 80 81 
3 63 82 61 
3 66 83 64 
3 64 84 85 
3 86 87 88 
3 57 68 45 
3 58 89 90 
3 70 54 51 
3 69 39 37 
3 73 91 71 
3 92 93 94 
3 92 95 96 
3 92 97 98 
3 76 99 74 
3 74 100 101 
3 81 79 78 
3 75 102 81 
3 82 103 61 
3 104 105 106 
3 104 61 107 
3 84 64 108 
3 85 65 64 
3 15 109 110 
3 27 25 111 
3 88 112 86 
3 113 114 115 
3 113 116 117 
3 118 119 120 
3 121 122 123 
3 90 59 58 
3 124 58 41 
3 58 45 43 
3 49 51 50 
3 69 124 39 
3 92 125 72 
3 92 126 93 
3 98 95 92 
3 101 127 74 
3 127 101 123 
3 81 80 75 
3 61 104 62 
3 107 105 104 
3 128 129 130 
3 110 131 132 
3 83 133 64 
3 131 110 134 
3 135 17 15 
3 135 136 19 
3 137 111 25 
3 138 29 27 
3 115 87 113 
3 113 139 116 
3 140 13 11 
3 120 89 118 
3 68 121 67 
3 43 41 58 
3 37 141 69 
3 94 125 92 
3 92 142 97 
3 123 122 127 
3 76 75 142 
3 75 143 102 
3 144 145 130 
3 106 146 104 
3 130 145 128 
3 147 148 149 
3 147 150 151 
3 152 153 154 
3 150 147 155 
3 132 156 110 
3 134 84 131 
3 19 17 135 
3 136 157 21 
3 157 137 23 
3 111 138 27 
3 117 114 113 
3 113 158 159 
3 11 9 140 
3 123 67 121 
3 51 124 69 
3 96 126 92 
3 142 92 76 
3 75 160 143 
3 130 77 144 
3 128 61 129 
3 161 162 119 
3 163 162 164 
3 144 165 166 
3 147 167 148 
3 151 168 147 
3 152 169 153 
3 155 170 150 
3 108 131 84 
3 21 19 136 
3 25 23 137 
3 159 139 113 
3 113 171 172 
3 5 3 67 
3 9 7 140 
3 41 39 124 
3 99 100 74 
3 173 35 33 
3 141 37 35 
3 75 74 160 
3 103 129 61 
3 119 118 161 
3 166 163 144 
3 168 167 147 
3 170 152 150 
3 156 174 110 
3 23 21 157 
3 15 175 176 
3 140 113 175 
3 172 158 113 
3 7 5 140 
3 71 92 72 
3 35 173 141 
3 77 165 144 
3 164 144 163 
3 154 150 152 
3 110 135 15 
3 176 177 15 
3 175 15 13 
3 113 140 171 
3 67 140 5 
3 33 178 173 
3 161 164 162 
3 178 33 31 
3 29 138 179 
3 179 138 147 
3 177 109 15 
3 86 113 87 
3 3 0 67 
3 79 165 77 
3 31 180 178 
3 149 179 147 
3 175 13 140 
3 120 90 89 
3 179 180 29 
3 0 45 67 
3 174 135 110 
3 31 29 180 
3 181 182 183 
3 184 185 181 
3 186 187 188 
3 186 189 190 
3 183 184 181 
3 191 192 193 
3 190 187 186 
3 189 186 185 
3 2 194 191 
3 195 196 194 
3 192 191 197 
3 198 199 200 
3 201 202 203 
3 186 204 205 
3 184 189 185 
3 194 2 195 
3 206 207 208 
3 209 210 211 
3 197 212 192 
3 198 213 214 
3 198 215 199 
3 203 216 201 
3 217 218 38 
3 188 204 186 
3 195 219 196 
3 219 195 220 
3 208 221 206 
3 221 208 209 
3 210 192 222 
3 212 223 192 
3 198 224 225 
3 200 213 198 
3 215 198 202 
3 38 40 217 
3 217 226 186 
3 193 42 44 
3 226 40 42 
3 220 227 219 
3 211 221 209 
3 223 222 192 
3 198 228 224 
3 201 215 202 
3 207 229 230 
3 231 232 233 
3 205 217 186 
3 42 193 226 
3 220 234 227 
3 222 211 210 
3 214 228 198 
3 235 225 207 
3 229 236 237 
3 238 239 240 
3 238 241 242 
3 239 243 244 
3 245 246 247 
3 248 249 250 
3 251 252 253 
3 231 254 255 
3 231 256 257 
3 231 258 232 
3 259 260 34 
3 260 261 32 
3 44 2 193 
3 206 229 207 
3 230 235 207 
3 229 262 236 
3 240 262 238 
3 263 264 234 
3 242 265 238 
3 239 266 243 
3 248 267 245 
3 250 268 248 
3 269 270 271 
3 251 272 273 
3 251 274 252 
3 257 254 231 
3 231 275 276 
3 231 277 258 
3 231 278 279 
3 218 259 36 
3 32 34 260 
3 193 2 191 
3 237 230 229 
3 262 280 241 
3 234 281 263 
3 265 282 238 
3 239 248 266 
3 268 267 248 
3 283 284 285 
3 269 286 287 
3 271 288 269 
3 28 289 290 
3 16 291 292 
3 251 293 294 
3 253 272 251 
3 276 256 231 
3 279 277 231 
3 34 36 259 
3 234 220 295 
3 225 235 198 
3 262 229 280 
3 282 264 238 
3 244 296 239 
3 248 239 249 
3 297 298 299 
3 297 269 300 
3 287 283 269 
3 269 297 270 
3 290 26 28 
3 301 24 26 
3 291 18 20 
3 292 302 16 
3 273 293 251 
3 292 303 304 
3 292 305 306 
3 233 275 231 
3 261 30 32 
3 40 226 217 
3 263 238 264 
3 247 248 245 
3 6 307 195 
3 300 298 297 
3 288 286 269 
3 26 290 301 
3 308 22 24 
3 309 20 22 
3 16 18 291 
3 304 251 292 
3 292 310 305 
3 255 311 231 
3 30 261 278 
3 295 281 234 
3 296 240 239 
3 195 4 6 
3 285 269 283 
3 312 12 14 
3 24 301 308 
3 20 309 291 
3 306 303 292 
3 278 289 30 
3 262 241 238 
3 195 1 4 
3 299 313 297 
3 307 8 314 
3 315 314 10 
3 14 302 312 
3 22 308 309 
3 292 291 310 
3 36 38 218 
3 195 2 1 
3 314 297 307 
3 314 8 10 
3 312 315 12 
3 294 292 251 
3 6 8 307 
3 10 12 315 
3 28 30 289 
3 313 307 297 
3 231 289 278 
3 14 16 302 
3 177 312 302 
3 176 315 312 
3 175 314 315 
3 315 176 175 
3 312 177 176 
3 302 109 177 
3 67 195 307 
3 307 140 67 
3 111 290 289 
3 137 301 290 
3 157 308 301 
3 136 309 308 
3 135 291 309 
3 309 136 135 
3 308 157 136 
3 301 137 157 
3 290 111 137 
3 289 138 111 
3 173 259 218 
3 178 260 259 
3 180 261 260 
3 260 178 180 
3 259 173 178 
3 218 141 173 
3 124 226 193 
3 193 58 124 
3 101 295 220 
3 100 281 295 
3 99 263 281 
3 76 238 263 
3 263 99 76 
3 281 100 99 
3 295 101 100 
3 220 123 101 
3 164 208 207 
3 161 209 208 
3 118 210 209 
3 89 192 210 
3 210 118 89 
3 209 161 118 
3 208 164 161 
3 207 144 164 
3 235 130 129 
3 198 129 103 
3 202 103 82 
3 203 82 63 
3 216 63 62 
3 201 62 104 
3 215 104 146 
3 199 146 106 
3 200 106 105 
3 213 105 107 
3 214 107 61 
3 228 61 128 
3 224 128 145 
3 145 225 224 
3 128 224 228 
3 61 228 214 
3 107 214 213 
3 105 213 200 
3 106 200 199 
3 146 199 215 
3 104 215 201 
3 62 201 216 
3 63 216 203 
3 82 203 202 
3 103 202 198 
3 129 198 235 
3 80 236 262 
3 78 237 236 
3 77 230 237 
3 237 78 77 
3 236 80 78 
3 262 75 80 
3 239 92 71 
3 249 71 91 
3 250 91 73 
3 268 73 72 
3 267 72 125 
3 245 125 94 
3 246 94 93 
3 247 93 126 
3 248 126 96 
3 266 96 95 
3 243 95 98 
3 244 98 97 
3 296 97 142 
3 142 240 296 
3 97 296 244 
3 98 244 243 
3 95 243 266 
3 96 266 248 
3 126 248 247 
3 93 247 246 
3 94 246 245 
3 125 245 267 
3 72 267 268 
3 73 268 250 
3 91 250 249 
3 71 249 239 
3 186 51 49 
3 185 49 48 
3 181 48 47 
3 182 47 46 
3 183 46 50 
3 184 50 60 
3 189 60 53 
3 190 53 52 
3 187 52 55 
3 188 55 54 
3 204 54 70 
3 205 70 69 
3 69 217 205 
3 70 205 204 
3 54 204 188 
3 55 188 187 
3 52 187 190 
3 53 190 189 
3 60 189 184 
3 50 184 183 
3 46 183 182 
3 47 182 181 
3 48 181 185 
3 49 185 186 
3 278 179 149 
3 279 149 148 
3 277 148 167 
3 258 167 168 
3 232 168 151 
3 233 151 150 
3 275 150 154 
3 276 154 153 
3 256 153 169 
3 257 169 152 
3 254 152 170 
3 255 170 155 
3 311 155 147 
3 147 231 311 
3 155 311 255 
3 170 255 254 
3 152 254 257 
3 169 257 256 
3 153 256 276 
3 154 276 275 
3 150 275 233 
3 151 233 232 
3 168 232 258 
3 167 258 277 
3 148 277 279 
3 149 279 278 
3 310 174 156 
3 305 156 132 
3 306 132 131 
3 303 131 108 
3 304 108 64 
3 251 64 133 
3 274 133 83 
3 252 83 66 
3 253 66 65 
3 272 65 85 
3 273 85 84 
3 293 84 134 
3 294 134 110 
3 110 292 294 
3 134 294 293 
3 84 293 273 
3 85 273 272 
3 65 272 253 
3 66 253 252 
3 83 252 274 
3 133 274 251 
3 64 251 304 
3 108 304 303 
3 131 303 306 
3 132 306 305 
3 156 305 310 
3 297 113 86 
3 270 86 112 
3 271 112 88 
3 288 88 87 
3 286 87 115 
3 287 115 114 
3 283 114 117 
3 284 117 116 
3 285 116 139 
3 269 139 159 
3 300 159 158 
3 298 158 172 
3 299 172 171 
3 171 313 299 
3 172 299 298 
3 158 298 300 
3 159 300 269 
3 139 269 285 
3 116 285 284 
3 117 284 283 
3 114 283 287 
3 115 287 286 
3 87 286 288 
3 88 288 271 
3 112 271 270 
3 86 270 297 
3 225 145 144 
3 144 207 225 
3 230 77 130 
3 130 235 230 
3 240 142 75 
3 75 262 240 
3 238 76 92 
3 92 239 238 
3 195 67 123 
3 123 220 195 
3 192 89 58 
3 58 193 192 
3 292 110 109 
3 109 302 292 
3 174 310 291 
3 291 135 174 
3 231 147 138 
3 138 289 231 
3 179 278 261 
3 261 180 179 
3 217 69 141 
3 141 218 217 
3 51 186 226 
3 226 124 51 
3 313 171 140 
3 140 307 313 
3 113 297 314 
3 314 175 113 
3 162 221 211 
3 163 206 221 
3 166 229 206 
3 165 280 229 
3 79 241 280 
3 81 242 241 
3 102 265 242 
3 143 282 265 
3 160 264 282 
3 74 234 264 
3 127 227 234 
3 122 219 227 
3 121 196 219 
3 68 194 196 
3 57 191 194 
3 56 197 191 
3 59 212 197 
3 90 223 212 
3 120 222 223 
3 119 211 222 
3 222 120 119 
3 223 90 120 
3 212 59 90 
3 197 56 59 
3 191 57 56 
3 194 68 57 
3 196 121 68 
3 219 122 121 
3 227 127 122 
3 234 74 127 
3 264 160 74 
3 282 143 160 
3 265 102 143 
3 242 81 102 
3 241 79 81 
3 280 165 79 
3 229 166 165 
3 206 163 166 
3 221 162 163 
3 211 119 162 
