ply
format ascii 1.0
comment VCGLIB generated
element vertex 328
property float x
property float y
property float z
element face 660
property list uchar int vertex_indices
end_header
-2.086941 48.86071 10 
-2.086941 48.86071 -10 
5 50 -10 
-9.688163 44.92243 10 
-9.688163 44.92243 -10 
-18.06077 36.37368 10 
-18.06077 36.37368 -10 
-25.1621 22.90106 10 
-25.1621 22.90106 -10 
-29.21192 6.605676 10 
-29.21192 6.605676 -10 
-29.80051 -10.86386 10 
-29.80051 -10.86386 -10 
-26.86833 -27.74014 10 
-26.86833 -27.74014 -10 
-20.71202 -42.3158 10 
-20.71202 -42.3158 -10 
-12.19683 -52.90329 10 
-12.19683 -52.90329 -10 
-4.357156 -57.99801 10 
-4.357156 -57.99801 -10 
2.837321 -59.8949 10 
2.837321 -59.8949 -10 
9.866927 -59.46566 10 
9.866927 -59.46566 -10 
17.2606 -56.51501 10 
17.2606 -56.51501 -10 
25.41036 -49.67992 10 
25.41036 -49.67992 -10 
33.30646 -37.34794 10 
33.30646 -37.34794 -10 
38.33878 -21.74331 10 
38.33878 -21.74331 -10 
39.99821 -4.444758 10 
39.99821 -4.444758 -10 
38.11687 12.79762 10 
38.11687 12.79762 -10 
32.88508 28.23941 10 
32.88508 28.23941 -10 
24.83216 40.31837 10 
24.83216 40.31837 -10 
16.73659 46.81552 10 
16.73659 46.81552 -10 
9.383325 49.56697 10 
9.383325 49.56697 -10 
5 50 10 
34.07805 129.435 10 
43.94754 120.5196 10 
41.63487 124.4673 10 
7.950494 71.23613 10 
-1.433354e-09 70 10 
35.61211 64.38464 10 
13.91571 74.22625 10 
11.28021 117.4028 10 
-3.222207 119.9704 10 
4.099953e-09 100 10 
-17.97134 118.3788 10 
-7.950494 98.76387 10 
44.96262 116.0584 10 
29.53695 129.9928 10 
42.8517 107.2648 10 
44.58564 111.4987 10 
-35.14703 64.83739 10 
-7.950494 71.23613 10 
-54.58564 111.4987 10 
-51.63487 124.4673 10 
-53.94754 120.5196 10 
-44.07805 129.435 10 
-48.23975 127.5342 10 
-20 85 10 
-21.28021 117.4028 10 
-43.98423 96.71783 10 
-13.91571 95.77375 10 
38.23975 127.5342 10 
39.9221 103.7505 10 
-51.78996 -89.28809 10 
-39.83483 -88.27493 10 
-34.63387 -85.14668 10 
-30.6107 -80.60243 10 
-65.54586 -78.23106 10 
-62.17369 -83.27729 10 
18.89311 -75.93038 10 
32.42278 -67.31371 10 
-80.53382 52.1964 10 
-80.61549 46.26583 10 
-78.95425 40.57211 10 
-52.8517 107.2648 10 
-49.9221 103.7505 10 
-31.00245 127.0018 10 
-35.03892 129.1558 10 
-44.99679 89.62003 10 
-43.73384 82.51165 10 
-39.83321 75.25248 10 
36.0694 101.2828 10 
21.00245 127.0018 10 
17.80306 123.7313 10 
25.03892 129.1558 10 
-45.73463 -89.69912 10 
-57.44318 -87.07968 10 
-65.18977 -60.58578 10 
-67.12669 -66.33768 10 
-49.04773 -46.07859 10 
-23.95313 -73.34846 10 
-9.55474 -78.97912 10 
4.606634 -79.76386 10 
-59.89377 4.758396 10 
-58.74056 -16.30522 10 
-53.4935 -36.23246 10 
-78.71645 57.84223 10 
-75.69622 35.61595 10 
-71.12791 31.83324 10 
-65.65112 29.55664 10 
-59.19795 68.89472 10 
-65.11506 68.48723 10 
-13.91571 74.22625 10 
-17.56195 77.82278 10 
17.56195 77.82278 10 
-54.96262 116.0584 10 
-39.53695 129.9928 10 
-27.80306 123.7313 10 
-46.0694 101.2828 10 
-19.43136 81.44859 10 
-35.28957 70.40588 10 
-17.56195 92.17722 10 
7.950494 98.76387 10 
33.98423 96.71783 10 
19.43136 88.55141 10 
33.57603 82.06664 10 
34.98513 89.182 10 
20 85 10 
17.56195 92.17722 10 
34.1153 96.27464 10 
13.91571 95.77375 10 
-67.24915 -72.4057 10 
-56.73668 -52.07126 10 
-61.61675 -55.67971 10 
-28.13583 -75.06069 10 
-56.87276 25.49038 10 
-70.65247 66.3623 10 
30.18528 69.13882 10 
-25.73842 119.6484 10 
-19.43136 88.55141 10 
15.73842 119.6484 10 
29.48523 74.79942 10 
-50.99896 -50.09274 10 
71.30478 -49.17427 10 
66.93024 -44.83595 10 
61.44279 -42.03495 10 
55.36316 -41.03709 10 
75.19965 -60.70938 10 
74.15129 -54.63825 10 
67.45375 -76.84475 10 
71.68407 -72.36568 10 
56.01708 -81.01984 10 
62.06083 -79.82369 10 
39.69757 -73.66983 10 
44.27849 -77.78964 10 
-59.74746 28.98639 10 
-44.26571 60.21474 10 
-75.32319 62.7068 10 
-53.42152 67.54893 10 
19.43136 81.44859 10 
39.84578 65.13918 10 
77.88133 55.18212 10 
77.37296 61.29569 10 
74.35038 -66.81155 10 
49.89602 -80.31967 10 
36.58796 -68.35118 10 
-39.71004 59.97204 10 
-48.29379 64.56823 10 
76.51273 49.20206 10 
52.99437 -37.51378 10 
58.5103 -17.71605 10 
59.94842 3.316384 10 
75.03545 66.96758 10 
53.84305 76.17875 10 
48.10133 74.01847 10 
65.90414 74.94347 10 
59.96945 76.49707 10 
73.39594 43.91815 10 
63.22761 37.31504 10 
68.82418 39.82752 10 
54.58815 33.20333 10 
57.13277 36.61711 10 
43.28451 70.21947 10 
71.08874 71.66412 10 
57.20852 24.11769 10 
7.950494 71.23613 -10 
29.48523 74.79942 -10 
30.18528 69.13882 -10 
36.0694 101.2828 -10 
34.07805 129.435 -10 
38.23975 127.5342 -10 
-1.433354e-09 70 -10 
44.96262 116.0584 -10 
44.58564 111.4987 -10 
42.8517 107.2648 -10 
41.63487 124.4673 -10 
-7.950494 71.23613 -10 
-35.14703 64.83739 -10 
-13.91571 74.22625 -10 
39.9221 103.7505 -10 
43.94754 120.5196 -10 
17.56195 92.17722 -10 
33.98423 96.71783 -10 
34.1153 96.27464 -10 
34.98513 89.182 -10 
33.57603 82.06664 -10 
20 85 -10 
13.91571 74.22625 -10 
21.00245 127.0018 -10 
25.03892 129.1558 -10 
15.73842 119.6484 -10 
17.80306 123.7313 -10 
-17.56195 77.82278 -10 
-35.28957 70.40588 -10 
19.43136 88.55141 -10 
19.43136 81.44859 -10 
17.56195 77.82278 -10 
29.53695 129.9928 -10 
13.91571 95.77375 -10 
11.28021 117.4028 -10 
52.99437 -37.51378 -10 
32.42278 -67.31371 -10 
-30.6107 -80.60243 -10 
-57.44318 -87.07968 -10 
-62.17369 -83.27729 -10 
-51.78996 -89.28809 -10 
-34.63387 -85.14668 -10 
-19.43136 81.44859 -10 
-17.97134 118.3788 -10 
-3.222207 119.9704 -10 
-43.98423 96.71783 -10 
-46.0694 101.2828 -10 
-25.73842 119.6484 -10 
4.099953e-09 100 -10 
-7.950494 98.76387 -10 
-80.53382 52.1964 -10 
-75.69622 35.61595 -10 
-78.95425 40.57211 -10 
18.89311 -75.93038 -10 
4.606634 -79.76386 -10 
-9.55474 -78.97912 -10 
-23.95313 -73.34846 -10 
-67.24915 -72.4057 -10 
-67.12669 -66.33768 -10 
-39.83483 -88.27493 -10 
-20 85 -10 
-21.28021 117.4028 -10 
-44.99679 89.62003 -10 
-19.43136 88.55141 -10 
-13.91571 95.77375 -10 
-39.53695 129.9928 -10 
-35.03892 129.1558 -10 
-44.07805 129.435 -10 
-53.94754 120.5196 -10 
-51.63487 124.4673 -10 
-54.58564 111.4987 -10 
-54.96262 116.0584 -10 
-49.9221 103.7505 -10 
-52.8517 107.2648 -10 
-65.65112 29.55664 -10 
-70.65247 66.3623 -10 
-65.11506 68.48723 -10 
-80.61549 46.26583 -10 
-28.13583 -75.06069 -10 
-50.99896 -50.09274 -10 
-56.73668 -52.07126 -10 
-65.18977 -60.58578 -10 
-61.61675 -55.67971 -10 
-65.54586 -78.23106 -10 
-45.73463 -89.69912 -10 
59.94842 3.316384 -10 
58.5103 -17.71605 -10 
7.950494 98.76387 -10 
-43.73384 82.51165 -10 
-17.56195 92.17722 -10 
-31.00245 127.0018 -10 
-27.80306 123.7313 -10 
-75.32319 62.7068 -10 
-78.71645 57.84223 -10 
-71.12791 31.83324 -10 
55.36316 -41.03709 -10 
49.89602 -80.31967 -10 
44.27849 -77.78964 -10 
67.45375 -76.84475 -10 
62.06083 -79.82369 -10 
75.19965 -60.70938 -10 
74.35038 -66.81155 -10 
71.30478 -49.17427 -10 
74.15129 -54.63825 -10 
61.44279 -42.03495 -10 
66.93024 -44.83595 -10 
-49.04773 -46.07859 -10 
39.84578 65.13918 -10 
73.39594 43.91815 -10 
68.82418 39.82752 -10 
75.03545 66.96758 -10 
77.37296 61.29569 -10 
35.61211 64.38464 -10 
-39.83321 75.25248 -10 
-39.71004 59.97204 -10 
-59.19795 68.89472 -10 
-48.29379 64.56823 -10 
-44.26571 60.21474 -10 
39.69757 -73.66983 -10 
56.01708 -81.01984 -10 
54.58815 33.20333 -10 
57.20852 24.11769 -10 
76.51273 49.20206 -10 
77.88133 55.18212 -10 
53.84305 76.17875 -10 
59.96945 76.49707 -10 
43.28451 70.21947 -10 
48.10133 74.01847 -10 
-48.23975 127.5342 -10 
-53.42152 67.54893 -10 
-56.87276 25.49038 -10 
-59.74746 28.98639 -10 
65.90414 74.94347 -10 
-59.89377 4.758396 -10 
-58.74056 -16.30522 -10 
71.68407 -72.36568 -10 
36.58796 -68.35118 -10 
57.13277 36.61711 -10 
63.22761 37.31504 -10 
-53.4935 -36.23246 -10 
71.08874 71.66412 -10 
3 0 1 2 
3 3 4 1 
3 5 6 4 
3 7 8 6 
3 9 10 8 
3 11 12 10 
3 13 14 12 
3 15 16 14 
3 17 18 16 
3 19 20 18 
3 21 22 20 
3 23 24 22 
3 25 26 24 
3 27 28 26 
3 29 30 28 
3 31 32 30 
3 33 34 32 
3 35 36 34 
3 37 38 36 
3 39 40 38 
3 41 42 40 
3 43 44 42 
3 45 2 44 
3 44 43 45 
3 42 41 43 
3 40 39 41 
3 38 37 39 
3 36 35 37 
3 34 33 35 
3 32 31 33 
3 30 29 31 
3 28 27 29 
3 26 25 27 
3 24 23 25 
3 22 21 23 
3 20 19 21 
3 18 17 19 
3 16 15 17 
3 14 13 15 
3 12 11 13 
3 10 9 11 
3 8 7 9 
3 6 5 7 
3 4 3 5 
3 1 0 3 
3 2 45 0 
3 46 47 48 
3 0 49 50 
3 51 52 49 
3 53 54 55 
3 54 56 57 
3 46 58 47 
3 59 60 61 
3 62 0 63 
3 49 0 51 
3 64 65 66 
3 64 67 68 
3 69 70 71 
3 57 55 54 
3 72 57 56 
3 48 73 46 
3 59 74 60 
3 75 76 77 
3 78 79 80 
3 81 82 25 
3 83 84 85 
3 50 63 0 
3 67 64 86 
3 68 65 64 
3 87 88 89 
3 71 90 69 
3 69 91 92 
3 56 70 72 
3 93 94 95 
3 93 59 96 
3 61 58 59 
3 75 97 76 
3 80 98 78 
3 78 99 100 
3 19 101 102 
3 103 104 21 
3 104 81 23 
3 82 27 25 
3 105 106 11 
3 106 107 13 
3 108 109 110 
3 109 108 83 
3 111 112 113 
3 62 114 115 
3 51 116 52 
3 66 117 64 
3 89 118 87 
3 119 87 120 
3 92 121 69 
3 121 92 122 
3 70 123 72 
3 53 124 125 
3 96 94 93 
3 59 93 74 
3 126 127 128 
3 127 126 129 
3 130 126 131 
3 125 124 132 
3 98 75 78 
3 100 133 78 
3 78 134 135 
3 134 78 136 
3 21 19 103 
3 25 23 81 
3 137 105 9 
3 13 11 106 
3 85 109 83 
3 113 138 111 
3 63 114 62 
3 116 51 139 
3 118 67 87 
3 120 140 119 
3 122 115 121 
3 71 70 140 
3 70 141 123 
3 93 142 53 
3 46 59 58 
3 129 143 127 
3 132 130 125 
3 133 79 78 
3 136 144 134 
3 23 21 104 
3 102 101 144 
3 145 146 147 
3 148 149 150 
3 148 151 152 
3 148 153 154 
3 148 155 156 
3 11 9 105 
3 13 107 101 
3 111 157 158 
3 111 159 108 
3 111 160 112 
3 139 161 116 
3 119 88 87 
3 140 120 71 
3 70 69 141 
3 95 142 93 
3 131 125 130 
3 162 163 164 
3 27 82 148 
3 135 99 78 
3 144 136 102 
3 150 145 148 
3 152 165 148 
3 148 166 153 
3 148 167 155 
3 101 15 13 
3 168 158 157 
3 158 169 111 
3 138 159 111 
3 5 3 62 
3 139 129 161 
3 90 91 69 
3 125 93 53 
3 129 139 143 
3 162 170 163 
3 171 172 31 
3 172 173 33 
3 148 171 27 
3 102 103 19 
3 165 149 148 
3 156 166 148 
3 101 17 15 
3 157 137 168 
3 110 111 108 
3 168 7 5 
3 86 87 67 
3 128 131 126 
3 174 175 176 
3 174 177 178 
3 162 179 170 
3 162 180 181 
3 51 182 183 
3 33 31 172 
3 77 78 75 
3 154 151 148 
3 101 19 17 
3 169 160 111 
3 62 168 5 
3 55 124 53 
3 176 184 174 
3 174 185 177 
3 181 179 162 
3 183 162 51 
3 173 186 35 
3 31 29 171 
3 147 148 145 
3 137 7 168 
3 115 122 62 
3 178 175 174 
3 162 183 180 
3 51 45 43 
3 186 37 35 
3 82 167 148 
3 3 0 62 
3 164 174 162 
3 51 0 45 
3 186 39 37 
3 9 7 137 
3 51 43 182 
3 186 41 39 
3 182 43 41 
3 184 162 174 
3 41 186 182 
3 35 33 173 
3 29 27 171 
3 187 188 189 
3 190 191 192 
3 2 193 187 
3 194 195 196 
3 192 197 190 
3 2 198 193 
3 199 200 198 
3 196 201 194 
3 197 202 190 
3 198 2 199 
3 203 204 205 
3 206 207 208 
3 188 187 209 
3 202 194 190 
3 190 210 211 
3 190 212 213 
3 199 214 200 
3 214 199 215 
3 205 216 203 
3 216 205 206 
3 207 188 217 
3 209 218 188 
3 190 219 191 
3 213 210 190 
3 204 220 221 
3 26 222 223 
3 224 225 226 
3 227 224 228 
3 215 229 214 
3 208 216 206 
3 218 217 188 
3 211 219 190 
3 212 190 204 
3 220 230 231 
3 232 233 234 
3 232 235 236 
3 237 238 239 
3 240 24 26 
3 241 22 24 
3 242 20 22 
3 243 18 20 
3 224 244 245 
3 224 227 225 
3 228 246 227 
3 215 247 229 
3 217 208 207 
3 221 212 204 
3 220 248 230 
3 234 248 232 
3 249 250 247 
3 236 251 232 
3 233 252 253 
3 254 255 256 
3 254 257 258 
3 254 259 260 
3 261 262 263 
3 239 264 237 
3 243 265 266 
3 24 240 241 
3 20 242 243 
3 267 266 265 
3 224 268 269 
3 224 270 244 
3 246 271 227 
3 272 34 36 
3 273 32 34 
3 203 220 204 
3 231 221 220 
3 248 274 235 
3 247 275 249 
3 251 276 232 
3 233 277 278 
3 233 254 252 
3 258 255 254 
3 254 233 259 
3 261 279 262 
3 237 280 238 
3 279 261 281 
3 282 283 284 
3 282 285 286 
3 285 287 288 
3 285 289 290 
3 285 291 292 
3 293 18 243 
3 22 241 242 
3 269 267 224 
3 226 270 224 
3 34 272 273 
3 222 30 32 
3 294 295 296 
3 294 297 298 
3 189 42 44 
3 42 189 299 
3 247 215 300 
3 201 190 194 
3 248 220 274 
3 276 250 232 
3 253 277 233 
3 260 257 254 
3 6 301 199 
3 263 302 261 
3 281 238 279 
3 261 303 304 
3 284 305 282 
3 286 306 282 
3 290 287 285 
3 285 282 291 
3 223 240 26 
3 245 268 224 
3 38 307 308 
3 32 273 222 
3 294 309 295 
3 298 310 294 
3 297 311 312 
3 297 313 314 
3 299 40 42 
3 189 2 187 
3 249 232 250 
3 256 315 254 
3 199 4 6 
3 280 279 238 
3 261 316 303 
3 301 317 318 
3 306 283 282 
3 292 289 285 
3 265 224 267 
3 223 222 282 
3 36 308 272 
3 310 309 294 
3 312 319 297 
3 297 294 313 
3 300 275 247 
3 278 234 233 
3 199 1 4 
3 304 318 261 
3 301 8 317 
3 320 10 12 
3 317 8 10 
3 14 16 293 
3 321 12 14 
3 288 322 285 
3 282 323 223 
3 222 28 30 
3 307 38 40 
3 299 294 324 
3 296 325 294 
3 314 311 297 
3 248 235 232 
3 199 2 1 
3 318 304 301 
3 10 320 317 
3 14 326 321 
3 266 293 243 
3 222 26 28 
3 324 307 299 
3 319 327 297 
3 6 8 301 
3 12 321 320 
3 293 326 14 
3 308 36 38 
3 325 324 294 
3 302 316 261 
3 305 323 282 
3 44 2 189 
3 40 299 307 
3 16 18 293 
3 107 326 293 
3 106 321 326 
3 105 320 321 
3 137 317 320 
3 320 105 137 
3 321 106 105 
3 326 107 106 
3 293 101 107 
3 62 199 301 
3 301 168 62 
3 81 240 223 
3 104 241 240 
3 103 242 241 
3 102 243 242 
3 242 103 102 
3 241 104 103 
3 240 81 104 
3 223 82 81 
3 186 308 307 
3 173 272 308 
3 172 273 272 
3 171 222 273 
3 273 172 171 
3 272 173 172 
3 308 186 173 
3 307 182 186 
3 51 299 189 
3 189 139 51 
3 92 300 215 
3 91 275 300 
3 90 249 275 
3 71 232 249 
3 249 90 71 
3 275 91 90 
3 300 92 91 
3 215 122 92 
3 131 205 204 
3 128 206 205 
3 127 207 206 
3 143 188 207 
3 207 127 143 
3 206 128 127 
3 205 131 128 
3 204 125 131 
3 212 142 95 
3 213 95 94 
3 210 94 96 
3 211 96 59 
3 219 59 46 
3 191 46 73 
3 192 73 48 
3 197 48 47 
3 202 47 58 
3 194 58 61 
3 195 61 60 
3 196 60 74 
3 201 74 93 
3 93 190 201 
3 74 201 196 
3 60 196 195 
3 61 195 194 
3 58 194 202 
3 47 202 197 
3 48 197 192 
3 73 192 191 
3 46 191 219 
3 59 219 211 
3 96 211 210 
3 94 210 213 
3 95 213 212 
3 56 230 248 
3 54 231 230 
3 53 221 231 
3 231 54 53 
3 230 56 54 
3 248 70 56 
3 233 120 87 
3 259 87 86 
3 260 86 64 
3 257 64 117 
3 258 117 66 
3 255 66 65 
3 256 65 68 
3 315 68 67 
3 254 67 118 
3 252 118 89 
3 253 89 88 
3 277 88 119 
3 278 119 140 
3 140 234 278 
3 119 278 277 
3 88 277 253 
3 89 253 252 
3 118 252 254 
3 67 254 315 
3 68 315 256 
3 65 256 255 
3 66 255 258 
3 117 258 257 
3 64 257 260 
3 86 260 259 
3 87 259 233 
3 294 162 184 
3 313 184 176 
3 314 176 175 
3 311 175 178 
3 312 178 177 
3 319 177 185 
3 327 185 174 
3 297 174 164 
3 298 164 163 
3 310 163 170 
3 309 170 179 
3 295 179 181 
3 296 181 180 
3 325 180 183 
3 183 324 325 
3 180 325 296 
3 181 296 295 
3 179 295 309 
3 170 309 310 
3 163 310 298 
3 164 298 297 
3 174 297 327 
3 185 327 319 
3 177 319 312 
3 178 312 311 
3 175 311 314 
3 176 314 313 
3 184 313 294 
3 282 148 147 
3 291 147 146 
3 292 146 145 
3 289 145 150 
3 290 150 149 
3 287 149 165 
3 288 165 152 
3 322 152 151 
3 285 151 154 
3 286 154 153 
3 306 153 166 
3 283 166 156 
3 284 156 155 
3 305 155 167 
3 167 323 305 
3 155 305 284 
3 156 284 283 
3 166 283 306 
3 153 306 286 
3 154 286 285 
3 151 285 322 
3 152 322 288 
3 165 288 287 
3 149 287 290 
3 150 290 289 
3 145 289 292 
3 146 292 291 
3 147 291 282 
3 265 136 78 
3 224 78 77 
3 228 77 76 
3 246 76 97 
3 271 97 75 
3 227 75 98 
3 225 98 80 
3 226 80 79 
3 270 79 133 
3 244 133 100 
3 245 100 99 
3 268 99 135 
3 269 135 134 
3 267 134 144 
3 144 266 267 
3 134 267 269 
3 135 269 268 
3 99 268 245 
3 100 245 244 
3 133 244 270 
3 79 270 226 
3 80 226 225 
3 98 225 227 
3 75 227 271 
3 97 271 246 
3 76 246 228 
3 77 228 224 
3 78 224 265 
3 318 157 111 
3 261 111 110 
3 281 110 109 
3 238 109 85 
3 239 85 84 
3 264 84 83 
3 237 83 108 
3 280 108 159 
3 279 159 138 
3 262 138 113 
3 263 113 112 
3 302 112 160 
3 316 160 169 
3 303 169 158 
3 158 304 303 
3 169 303 316 
3 160 316 302 
3 112 302 263 
3 113 263 262 
3 138 262 279 
3 159 279 280 
3 108 280 237 
3 83 237 264 
3 84 264 239 
3 85 239 238 
3 109 238 281 
3 110 281 261 
3 111 261 318 
3 190 93 125 
3 125 204 190 
3 221 53 142 
3 142 212 221 
3 234 140 70 
3 70 248 234 
3 232 71 120 
3 120 233 232 
3 199 62 122 
3 122 215 199 
3 188 143 139 
3 139 189 188 
3 266 144 101 
3 101 293 266 
3 136 265 243 
3 243 102 136 
3 323 167 82 
3 82 223 323 
3 148 282 222 
3 222 171 148 
3 324 183 182 
3 182 307 324 
3 162 294 299 
3 299 51 162 
3 304 158 168 
3 168 301 304 
3 157 318 317 
3 317 137 157 
3 126 216 208 
3 130 203 216 
3 132 220 203 
3 124 274 220 
3 55 235 274 
3 57 236 235 
3 72 251 236 
3 123 276 251 
3 141 250 276 
3 69 247 250 
3 121 229 247 
3 115 214 229 
3 114 200 214 
3 63 198 200 
3 50 193 198 
3 49 187 193 
3 52 209 187 
3 116 218 209 
3 161 217 218 
3 129 208 217 
3 217 161 129 
3 218 116 161 
3 209 52 116 
3 187 49 52 
3 193 50 49 
3 198 63 50 
3 200 114 63 
3 214 115 114 
3 229 121 115 
3 247 69 121 
3 250 141 69 
3 276 123 141 
3 251 72 123 
3 236 57 72 
3 235 55 57 
3 274 124 55 
3 220 132 124 
3 203 130 132 
3 216 126 130 
3 208 129 126 
