ply
format ascii 1.0
comment VCGLIB generated
element vertex 24
property float x
property float y
property float z
element face 44
property list uchar int vertex_indices
end_header
15 0 -101.6025 
-15 0 -101.6025 
-15 150 -15 
15 150 -15 
15 0 -72.73502 
-15 0 -72.73502 
15 125.9808 0 
-15 125.9808 0 
15 0 72.73502 
-15 0 72.73502 
15 0 101.6025 
-15 0 101.6025 
15 150 15 
-15 150 15 
123 337.0615 -15 
123 337.0615 15 
101.3494 349.5615 -15 
101.3494 349.5615 15 
0 174.0192 -15 
0 174.0192 15 
-123 337.0615 15 
-101.3494 349.5615 15 
-123 337.0615 -15 
-101.3494 349.5615 -15 
3 0 1 2 
3 2 3 0 
3 4 5 1 
3 1 0 4 
3 6 7 5 
3 5 4 6 
3 8 9 7 
3 7 6 8 
3 10 11 9 
3 9 8 10 
3 3 6 4 
3 3 12 6 
3 12 10 8 
3 8 6 12 
3 4 0 3 
3 2 1 5 
3 13 7 9 
3 5 7 2 
3 7 13 2 
3 9 11 13 
3 12 13 11 
3 11 10 12 
3 14 15 12 
3 12 3 14 
3 15 14 16 
3 16 17 15 
3 17 16 18 
3 18 19 17 
3 15 17 19 
3 20 13 19 
3 19 12 15 
3 19 13 12 
3 19 21 20 
3 14 3 18 
3 3 2 18 
3 22 23 18 
3 18 2 22 
3 18 16 14 
3 19 18 23 
3 23 21 19 
3 22 2 13 
3 13 20 22 
3 21 23 22 
3 22 20 21 
